<?xml version="1.0" encoding="utf-8"?>
<!-- Generator: Adobe Illustrator 19.0.0, SVG Export Plug-In . SVG Version: 6.00 Build 0)  -->
<svg version="1.1" id="Layer_1" xmlns="http://www.w3.org/2000/svg" xmlns:xlink="http://www.w3.org/1999/xlink" x="0px" y="0px"
	 viewBox="0 0 331 299" style="enable-background:new 0 0 331 299;" xml:space="preserve">
<style type="text/css">
	.st0{fill:#FFFFFF;}
	.st1{fill:#7AC943;}
	.st2{fill:#3FA9F5;}
	.st3{fill:#FF7BAC;}
	.st4{fill:#FFFF00;}
	.st5{fill:#0071BC;}
	.st6{fill:#FF1D25;stroke:#FF1D25;stroke-miterlimit:10;}
	.st7{fill:#B0B6B7;}
	.st8{fill:none;stroke:#B4B4B4;stroke-width:5;stroke-miterlimit:10;}
</style>
<g id="XMLID_528_">
	<path id="XMLID_438_" class="st0" d="M308.5,230.7c0,6.8-5.5,12.3-12.3,12.3H33.8c-6.8,0-12.3-5.5-12.3-12.3V68.3
		C21.5,61.5,27,56,33.8,56h262.3c6.8,0,12.3,5.5,12.3,12.3V230.7z"/>
	<g id="XMLID_512_">
		<path id="XMLID_498_" class="st1" d="M101.5,217h-19v-91.4c0-3.3,3.5-5.6,6.9-5.6h7.5c2.7,0,4.6,1.7,4.6,4.4V217z"/>
		<path id="XMLID_500_" class="st2" d="M130.5,217h-20V92.5c0-2.9,3.2-5.5,6.2-5.5h8.4c3.1,0,5.5,2.6,5.5,5.7V217z"/>
		<path id="XMLID_502_" class="st3" d="M158.5,217h-18v-73.1c0-3.3,3.3-5.9,6.5-5.9h7.2c2.9,0,4.3,2.3,4.3,5.2V217z"/>
		<path id="XMLID_503_" class="st4" d="M187.5,217h-19v-43.1c0-3.4,3.4-5.9,6.8-5.9h7.2c2.8,0,5,1.9,5,4.7V217z"/>
		<path id="XMLID_504_" class="st5" d="M215.5,217h-19v-90.9c0-3.6,3.6-6.1,7.2-6.1h7c3.2,0,4.8,2.1,4.8,5.2V217z"/>
		<path id="XMLID_511_" class="st6" d="M243,216.5h-19v-59.2c0-3.2,3.3-5.8,6.6-5.8h7.1c3,0,5.3,2.4,5.3,5.4V216.5z"/>
	</g>
	<polygon id="XMLID_518_" class="st7" points="257.6,209.9 271.7,216.3 257.5,222.6 	"/>
	<polygon id="XMLID_395_" class="st7" points="60.3,86.7 66.7,72.6 73,86.7 	"/>
	<polyline id="XMLID_499_" class="st8" points="258.5,216.5 66,216.5 66,83 	"/>
</g>
</svg>
