<?xml version="1.0" encoding="utf-8"?>
<!-- Generator: Adobe Illustrator 19.0.0, SVG Export Plug-In . SVG Version: 6.00 Build 0)  -->
<svg version="1.1" id="Layer_1" xmlns="http://www.w3.org/2000/svg" xmlns:xlink="http://www.w3.org/1999/xlink" x="0px" y="0px"
	 viewBox="-314 131 331 299" style="enable-background:new -314 131 331 299;" xml:space="preserve">
<style type="text/css">
	.st0{fill:#FFFFFF;}
	.st1{fill:#CFCFCF;}
	.st2{fill:#00A296;}
	.st3{fill:#00B7F4;}
	.st4{fill:#B8B8B8;}
	.st5{fill:#F6F6F6;}
	.st6{fill:#FF625D;}
	.st7{fill:#FF4355;}
</style>
<g>
	<g id="XMLID_593_">
		<path id="XMLID_647_" class="st0" d="M-24,193.5v117.1c0,4.7-3.5,8.4-7.5,8.4h-117.9c-4,0-7.6-3.7-7.6-8.4V193.5
			c0-4.7,3.6-8.5,7.6-8.5h117.9C-27.5,185-24,188.7-24,193.5z"/>
		<g id="XMLID_611_">
			<g id="XMLID_642_">
				<rect id="XMLID_646_" x="-96" y="226" class="st1" width="11" height="11"/>
				<rect id="XMLID_645_" x="-78" y="226" class="st1" width="10" height="11"/>
				<rect id="XMLID_644_" x="-61" y="226" class="st2" width="10" height="11"/>
				<rect id="XMLID_643_" x="-44" y="226" class="st2" width="11" height="11"/>
			</g>
			<g id="XMLID_634_">
				<rect id="XMLID_641_" x="-148" y="243" class="st1" width="10" height="11"/>
				<rect id="XMLID_640_" x="-131" y="243" class="st1" width="11" height="11"/>
				<rect id="XMLID_639_" x="-113" y="243" class="st1" width="11" height="11"/>
				<rect id="XMLID_638_" x="-96" y="243" class="st1" width="11" height="11"/>
				<rect id="XMLID_637_" x="-78" y="243" class="st1" width="10" height="11"/>
				<rect id="XMLID_636_" x="-61" y="243" class="st2" width="10" height="11"/>
				<rect id="XMLID_635_" x="-44" y="243" class="st2" width="11" height="11"/>
			</g>
			<g id="XMLID_626_">
				<rect id="XMLID_633_" x="-148" y="261" class="st1" width="10" height="11"/>
				<rect id="XMLID_632_" x="-131" y="261" class="st1" width="11" height="11"/>
				<rect id="XMLID_631_" x="-113" y="261" class="st1" width="11" height="11"/>
				<rect id="XMLID_630_" x="-96" y="261" class="st1" width="11" height="11"/>
				<rect id="XMLID_629_" x="-78" y="261" class="st1" width="10" height="11"/>
				<rect id="XMLID_628_" x="-61" y="261" class="st2" width="10" height="11"/>
				<rect id="XMLID_627_" x="-44" y="261" class="st2" width="11" height="11"/>
			</g>
			<g id="XMLID_618_">
				<rect id="XMLID_625_" x="-148" y="279" class="st1" width="10" height="10"/>
				<rect id="XMLID_624_" x="-131" y="279" class="st1" width="11" height="10"/>
				<rect id="XMLID_623_" x="-113" y="279" class="st1" width="11" height="10"/>
				<rect id="XMLID_622_" x="-96" y="279" class="st1" width="11" height="10"/>
				<rect id="XMLID_621_" x="-78" y="279" class="st1" width="10" height="10"/>
				<rect id="XMLID_620_" x="-61" y="279" class="st2" width="10" height="10"/>
				<rect id="XMLID_619_" x="-44" y="279" class="st2" width="11" height="10"/>
			</g>
			<g id="XMLID_612_">
				<rect id="XMLID_617_" x="-148" y="294" class="st1" width="10" height="11"/>
				<rect id="XMLID_616_" x="-131" y="294" class="st1" width="11" height="11"/>
				<rect id="XMLID_615_" x="-113" y="294" class="st1" width="11" height="11"/>
				<rect id="XMLID_614_" x="-96" y="294" class="st1" width="11" height="11"/>
				<rect id="XMLID_613_" x="-78" y="294" class="st1" width="10" height="11"/>
			</g>
		</g>
		<path id="XMLID_610_" class="st3" d="M-24,192.1V215h-133v-22.9c0-4,3.6-7.1,7.6-7.1h117.9C-27.5,185-24,188.1-24,192.1z"/>
		<g id="XMLID_594_">
			<g id="XMLID_605_">
				<circle id="XMLID_609_" class="st0" cx="-131.6" cy="195.4" r="6.8"/>
				<g id="XMLID_606_">
					<path id="XMLID_608_" class="st4" d="M-129,193.5c0,1.9-1.6,3.5-3.5,3.5l0,0c-1.9,0-3.5-1.6-3.5-3.5v-15c0-1.9,1.6-3.5,3.5-3.5
						l0,0c1.9,0,3.5,1.6,3.5,3.5V193.5z"/>
					<path id="XMLID_607_" class="st5" d="M-133,195c0,0.6-0.4,1-1,1l0,0c-0.6,0-1-0.4-1-1v-16c0-0.6,0.4-1,1-1l0,0c0.6,0,1,0.4,1,1
						V195z"/>
				</g>
			</g>
			<g id="XMLID_600_">
				<circle id="XMLID_604_" class="st0" cx="-90.4" cy="195.4" r="6.8"/>
				<g id="XMLID_601_">
					<path id="XMLID_603_" class="st4" d="M-87,193.5c0,1.9-1.6,3.5-3.5,3.5l0,0c-1.9,0-3.5-1.6-3.5-3.5v-15c0-1.9,1.6-3.5,3.5-3.5
						l0,0c1.9,0,3.5,1.6,3.5,3.5V193.5z"/>
					<path id="XMLID_602_" class="st5" d="M-91,195c0,0.6-0.4,1-1,1l0,0c-0.6,0-1-0.4-1-1v-16c0-0.6,0.4-1,1-1l0,0c0.6,0,1,0.4,1,1
						V195z"/>
				</g>
			</g>
			<g id="XMLID_595_">
				<circle id="XMLID_599_" class="st0" cx="-49.2" cy="195.4" r="6.8"/>
				<g id="XMLID_596_">
					<path id="XMLID_598_" class="st4" d="M-46,193.5c0,1.9-1.6,3.5-3.5,3.5l0,0c-1.9,0-3.5-1.6-3.5-3.5v-15c0-1.9,1.6-3.5,3.5-3.5
						l0,0c1.9,0,3.5,1.6,3.5,3.5V193.5z"/>
					<path id="XMLID_597_" class="st5" d="M-50,195c0,0.6-0.4,1-1,1l0,0c-0.6,0-1-0.4-1-1v-16c0-0.6,0.4-1,1-1l0,0c0.6,0,1,0.4,1,1
						V195z"/>
				</g>
			</g>
		</g>
	</g>
	<g id="XMLID_388_">
		<path id="XMLID_490_" class="st0" d="M-110,230.8v144.4c0,5.8-3.7,10.8-8.7,10.8H-264c-5,0-9-4.9-9-10.8V230.8
			c0-5.8,4-10.8,9-10.8h145.4C-113.7,220-110,225-110,230.8z"/>
		<g id="XMLID_443_">
			<g id="XMLID_440_">
				<rect id="XMLID_445_" x="-198" y="271" class="st1" width="13" height="13"/>
				<rect id="XMLID_446_" x="-176" y="271" class="st1" width="13" height="13"/>
				<rect id="XMLID_472_" x="-155" y="271" class="st6" width="13" height="13"/>
				<rect id="XMLID_473_" x="-134" y="271" class="st6" width="14" height="13"/>
			</g>
			<g id="XMLID_448_">
				<rect id="XMLID_461_" x="-263" y="292" class="st1" width="14" height="14"/>
				<rect id="XMLID_454_" x="-241" y="292" class="st1" width="14" height="14"/>
				<rect id="XMLID_453_" x="-219" y="292" class="st1" width="13" height="14"/>
				<rect id="XMLID_452_" x="-198" y="292" class="st1" width="13" height="14"/>
				<rect id="XMLID_451_" x="-176" y="292" class="st1" width="13" height="14"/>
				<rect id="XMLID_450_" x="-155" y="292" class="st6" width="13" height="14"/>
				<rect id="XMLID_449_" x="-134" y="292" class="st6" width="14" height="14"/>
			</g>
			<g id="XMLID_462_">
				<rect id="XMLID_469_" x="-263" y="314" class="st1" width="14" height="13"/>
				<rect id="XMLID_468_" x="-241" y="314" class="st1" width="14" height="13"/>
				<rect id="XMLID_467_" x="-219" y="314" class="st1" width="13" height="13"/>
				<rect id="XMLID_466_" x="-198" y="314" class="st1" width="13" height="13"/>
				<rect id="XMLID_465_" x="-176" y="314" class="st1" width="13" height="13"/>
				<rect id="XMLID_464_" x="-155" y="314" class="st6" width="13" height="13"/>
				<rect id="XMLID_463_" x="-134" y="314" class="st6" width="14" height="13"/>
			</g>
			<g id="XMLID_470_">
				<rect id="XMLID_480_" x="-263" y="336" class="st1" width="14" height="13"/>
				<rect id="XMLID_479_" x="-241" y="336" class="st1" width="14" height="13"/>
				<rect id="XMLID_478_" x="-219" y="336" class="st1" width="13" height="13"/>
				<rect id="XMLID_477_" x="-198" y="336" class="st1" width="13" height="13"/>
				<rect id="XMLID_476_" x="-176" y="336" class="st1" width="13" height="13"/>
				<rect id="XMLID_474_" x="-155" y="336" class="st6" width="13" height="13"/>
				<rect id="XMLID_471_" x="-134" y="336" class="st6" width="14" height="13"/>
			</g>
			<g id="XMLID_441_">
				<rect id="XMLID_489_" x="-263" y="355" class="st1" width="14" height="13"/>
				<rect id="XMLID_487_" x="-241" y="355" class="st1" width="14" height="13"/>
				<rect id="XMLID_486_" x="-219" y="355" class="st1" width="13" height="13"/>
				<rect id="XMLID_485_" x="-198" y="355" class="st1" width="13" height="13"/>
				<rect id="XMLID_484_" x="-176" y="355" class="st1" width="13" height="13"/>
			</g>
		</g>
		<path id="XMLID_488_" class="st7" d="M-110,229.2V257h-163v-27.8c0-4.9,4-9.2,9-9.2h145.4C-113.7,220-110,224.2-110,229.2z"/>
		<g id="XMLID_309_">
			<g id="XMLID_310_">
				<circle id="XMLID_366_" class="st0" cx="-242.2" cy="233.2" r="8.4"/>
				<g id="XMLID_367_">
					<path id="XMLID_368_" class="st4" d="M-237,231.2c0,2.6-2.1,4.8-4.8,4.8h-0.5c-2.6,0-4.8-2.1-4.8-4.8v-18.5
						c0-2.6,2.1-4.8,4.8-4.8h0.5c2.6,0,4.8,2.1,4.8,4.8V231.2z"/>
					<path id="XMLID_372_" class="st5" d="M-243,231.6c0,0.8-0.6,1.4-1.4,1.4h-0.3c-0.8,0-1.4-0.6-1.4-1.4v-19.3
						c0-0.8,0.6-1.4,1.4-1.4h0.3c0.8,0,1.4,0.6,1.4,1.4V231.6z"/>
				</g>
			</g>
			<g id="XMLID_373_">
				<circle id="XMLID_374_" class="st0" cx="-191.4" cy="233.2" r="8.4"/>
				<g id="XMLID_375_">
					<path id="XMLID_376_" class="st4" d="M-186,231.2c0,2.6-2.1,4.8-4.8,4.8h-0.5c-2.6,0-4.8-2.1-4.8-4.8v-18.5
						c0-2.6,2.1-4.8,4.8-4.8h0.5c2.6,0,4.8,2.1,4.8,4.8V231.2z"/>
					<path id="XMLID_377_" class="st5" d="M-192,231.6c0,0.8-0.6,1.4-1.4,1.4h-0.3c-0.8,0-1.4-0.6-1.4-1.4v-19.3
						c0-0.8,0.6-1.4,1.4-1.4h0.3c0.8,0,1.4,0.6,1.4,1.4V231.6z"/>
				</g>
			</g>
			<g id="XMLID_378_">
				<circle id="XMLID_385_" class="st0" cx="-140.6" cy="233.2" r="8.4"/>
				<g id="XMLID_381_">
					<path id="XMLID_384_" class="st4" d="M-135,231.2c0,2.6-2.1,4.8-4.8,4.8h-0.5c-2.6,0-4.8-2.1-4.8-4.8v-18.5
						c0-2.6,2.1-4.8,4.8-4.8h0.5c2.6,0,4.8,2.1,4.8,4.8V231.2z"/>
					<path id="XMLID_383_" class="st5" d="M-141,231.6c0,0.8-0.6,1.4-1.4,1.4h-0.3c-0.8,0-1.4-0.6-1.4-1.4v-19.3
						c0-0.8,0.6-1.4,1.4-1.4h0.3c0.8,0,1.4,0.6,1.4,1.4V231.6z"/>
				</g>
			</g>
		</g>
	</g>
</g>
</svg>
