<?xml version="1.0" encoding="utf-8"?>
<!-- Generator: Adobe Illustrator 19.0.0, SVG Export Plug-In . SVG Version: 6.00 Build 0)  -->
<svg version="1.1" id="Layer_1" xmlns="http://www.w3.org/2000/svg" xmlns:xlink="http://www.w3.org/1999/xlink" x="0px" y="0px"
	 viewBox="0 0 331 299" style="enable-background:new 0 0 331 299;" xml:space="preserve">
<style type="text/css">
	.st0{fill:#FFFFFF;}
	.st1{fill:#CFCFCF;}
	.st2{fill:#FF625D;}
	.st3{fill:#FF4355;}
	.st4{fill:#B8B8B8;}
	.st5{fill:#F6F6F6;}
</style>
<g id="XMLID_388_">
	<path id="XMLID_490_" class="st0" d="M285.5,50.9v212.3c0,8.6-5.4,16.8-12.7,16.8H59.2c-7.3,0-13.7-8.2-13.7-16.8V50.9
		c0-8.6,6.4-14.9,13.7-14.9h213.7C280.1,36,285.5,42.4,285.5,50.9z"/>
	<g id="XMLID_443_">
		<g id="XMLID_440_">
			<rect id="XMLID_445_" x="155.5" y="111" class="st1" width="20" height="19"/>
			<rect id="XMLID_446_" x="187.5" y="111" class="st1" width="19" height="19"/>
			<rect id="XMLID_472_" x="218.5" y="111" class="st2" width="20" height="19"/>
			<rect id="XMLID_473_" x="250.5" y="111" class="st2" width="20" height="19"/>
		</g>
		<g id="XMLID_448_">
			<rect id="XMLID_461_" x="60.5" y="142" class="st1" width="20" height="20"/>
			<rect id="XMLID_454_" x="92.5" y="142" class="st1" width="20" height="20"/>
			<rect id="XMLID_453_" x="124.5" y="142" class="st1" width="19" height="20"/>
			<rect id="XMLID_452_" x="155.5" y="142" class="st1" width="20" height="20"/>
			<rect id="XMLID_451_" x="187.5" y="142" class="st1" width="19" height="20"/>
			<rect id="XMLID_450_" x="218.5" y="142" class="st2" width="20" height="20"/>
			<rect id="XMLID_449_" x="250.5" y="142" class="st2" width="20" height="20"/>
		</g>
		<g id="XMLID_462_">
			<rect id="XMLID_469_" x="60.5" y="174" class="st1" width="20" height="20"/>
			<rect id="XMLID_468_" x="92.5" y="174" class="st1" width="20" height="20"/>
			<rect id="XMLID_467_" x="124.5" y="174" class="st1" width="19" height="20"/>
			<rect id="XMLID_466_" x="155.5" y="174" class="st1" width="20" height="20"/>
			<rect id="XMLID_465_" x="187.5" y="174" class="st1" width="19" height="20"/>
			<rect id="XMLID_464_" x="218.5" y="174" class="st2" width="20" height="20"/>
			<rect id="XMLID_463_" x="250.5" y="174" class="st2" width="20" height="20"/>
		</g>
		<g id="XMLID_470_">
			<rect id="XMLID_480_" x="60.5" y="206" class="st1" width="20" height="19"/>
			<rect id="XMLID_479_" x="92.5" y="206" class="st1" width="20" height="19"/>
			<rect id="XMLID_478_" x="124.5" y="206" class="st1" width="19" height="19"/>
			<rect id="XMLID_477_" x="155.5" y="206" class="st1" width="20" height="19"/>
			<rect id="XMLID_476_" x="187.5" y="206" class="st1" width="19" height="19"/>
			<rect id="XMLID_474_" x="218.5" y="206" class="st2" width="20" height="19"/>
			<rect id="XMLID_471_" x="250.5" y="206" class="st2" width="20" height="19"/>
		</g>
		<g id="XMLID_441_">
			<rect id="XMLID_489_" x="60.5" y="235" class="st1" width="20" height="19"/>
			<rect id="XMLID_487_" x="92.5" y="235" class="st1" width="20" height="19"/>
			<rect id="XMLID_486_" x="124.5" y="235" class="st1" width="19" height="19"/>
			<rect id="XMLID_485_" x="155.5" y="235" class="st1" width="20" height="19"/>
			<rect id="XMLID_484_" x="187.5" y="235" class="st1" width="19" height="19"/>
		</g>
	</g>
	<path id="XMLID_488_" class="st3" d="M285.5,48.5V91h-240V48.5c0-7.3,6.4-12.5,13.7-12.5h213.7C280.1,36,285.5,41.2,285.5,48.5z"/>
	<g id="XMLID_303_">
		<g id="XMLID_308_">
			<circle id="XMLID_309_" class="st0" cx="91.3" cy="54.3" r="12.3"/>
			<g id="XMLID_310_">
				<path id="XMLID_367_" class="st4" d="M97.5,53.2c0,3.8-3.1,6.8-6.8,6.8h-0.3c-3.8,0-6.8-3.1-6.8-6.8V25.8c0-3.8,3.1-6.8,6.8-6.8
					h0.3c3.8,0,6.8,3.1,6.8,6.8V53.2z"/>
				<path id="XMLID_366_" class="st5" d="M89.5,54c0,1.1-0.9,2-2,2l0,0c-1.1,0-2-0.9-2-2V25c0-1.1,0.9-2,2-2l0,0c1.1,0,2,0.9,2,2V54
					z"/>
			</g>
		</g>
		<g id="XMLID_368_">
			<circle id="XMLID_373_" class="st0" cx="166" cy="54.3" r="12.3"/>
			<g id="XMLID_372_">
				<path id="XMLID_374_" class="st4" d="M172.5,53.2c0,3.8-3.1,6.8-6.8,6.8h-0.3c-3.8,0-6.8-3.1-6.8-6.8V25.8
					c0-3.8,3.1-6.8,6.8-6.8h0.3c3.8,0,6.8,3.1,6.8,6.8V53.2z"/>
				<path id="XMLID_376_" class="st5" d="M164.5,54c0,1.1-0.9,2-2,2l0,0c-1.1,0-2-0.9-2-2V25c0-1.1,0.9-2,2-2l0,0c1.1,0,2,0.9,2,2
					V54z"/>
			</g>
		</g>
		<g id="XMLID_378_">
			<circle id="XMLID_385_" class="st0" cx="240.7" cy="54.3" r="12.3"/>
			<g id="XMLID_381_">
				<path id="XMLID_384_" class="st4" d="M247.5,53.2c0,3.8-3.1,6.8-6.8,6.8h-0.3c-3.8,0-6.8-3.1-6.8-6.8V25.8
					c0-3.8,3.1-6.8,6.8-6.8h0.3c3.8,0,6.8,3.1,6.8,6.8V53.2z"/>
				<path id="XMLID_383_" class="st5" d="M238.5,54c0,1.1-0.9,2-2,2l0,0c-1.1,0-2-0.9-2-2V25c0-1.1,0.9-2,2-2l0,0c1.1,0,2,0.9,2,2
					V54z"/>
			</g>
		</g>
	</g>
</g>
</svg>
