<?xml version="1.0" encoding="utf-8"?>
<!-- Generator: Adobe Illustrator 19.0.0, SVG Export Plug-In . SVG Version: 6.00 Build 0)  -->
<svg version="1.1" id="Layer_1" xmlns="http://www.w3.org/2000/svg" xmlns:xlink="http://www.w3.org/1999/xlink" x="0px" y="0px"
	 viewBox="0 0 331 299" style="enable-background:new 0 0 331 299;" xml:space="preserve">
<style type="text/css">
	.st0{fill:#FFFFFF;}
	.st1{fill:#CFCFCF;}
	.st2{fill:#00A296;}
	.st3{fill:#00B7F4;}
	.st4{fill:#B8B8B8;}
	.st5{fill:#F6F6F6;}
</style>
<g id="XMLID_593_">
	<path id="XMLID_647_" class="st0" d="M262.5,70.5v172.2c0,7-4.6,13.3-10.5,13.3H78.7c-5.9,0-11.2-6.3-11.2-13.3V70.5
		c0-7,5.3-12.5,11.2-12.5H252C257.9,58,262.5,63.6,262.5,70.5z"/>
	<g id="XMLID_611_">
		<g id="XMLID_642_">
			<rect id="XMLID_646_" x="156.5" y="119" class="st1" width="16" height="16"/>
			<rect id="XMLID_645_" x="182.5" y="119" class="st1" width="16" height="16"/>
			<rect id="XMLID_644_" x="208.5" y="119" class="st2" width="15" height="16"/>
			<rect id="XMLID_643_" x="233.5" y="119" class="st2" width="16" height="16"/>
		</g>
		<g id="XMLID_634_">
			<rect id="XMLID_641_" x="80.5" y="144" class="st1" width="15" height="16"/>
			<rect id="XMLID_640_" x="105.5" y="144" class="st1" width="16" height="16"/>
			<rect id="XMLID_639_" x="131.5" y="144" class="st1" width="16" height="16"/>
			<rect id="XMLID_638_" x="156.5" y="144" class="st1" width="16" height="16"/>
			<rect id="XMLID_637_" x="182.5" y="144" class="st1" width="16" height="16"/>
			<rect id="XMLID_636_" x="208.5" y="144" class="st2" width="15" height="16"/>
			<rect id="XMLID_635_" x="233.5" y="144" class="st2" width="16" height="16"/>
		</g>
		<g id="XMLID_626_">
			<rect id="XMLID_633_" x="80.5" y="170" class="st1" width="15" height="16"/>
			<rect id="XMLID_632_" x="105.5" y="170" class="st1" width="16" height="16"/>
			<rect id="XMLID_631_" x="131.5" y="170" class="st1" width="16" height="16"/>
			<rect id="XMLID_630_" x="156.5" y="170" class="st1" width="16" height="16"/>
			<rect id="XMLID_629_" x="182.5" y="170" class="st1" width="16" height="16"/>
			<rect id="XMLID_628_" x="208.5" y="170" class="st2" width="15" height="16"/>
			<rect id="XMLID_627_" x="233.5" y="170" class="st2" width="16" height="16"/>
		</g>
		<g id="XMLID_618_">
			<rect id="XMLID_625_" x="80.5" y="196" class="st1" width="15" height="16"/>
			<rect id="XMLID_624_" x="105.5" y="196" class="st1" width="16" height="16"/>
			<rect id="XMLID_623_" x="131.5" y="196" class="st1" width="16" height="16"/>
			<rect id="XMLID_622_" x="156.5" y="196" class="st1" width="16" height="16"/>
			<rect id="XMLID_621_" x="182.5" y="196" class="st1" width="16" height="16"/>
			<rect id="XMLID_620_" x="208.5" y="196" class="st2" width="15" height="16"/>
			<rect id="XMLID_619_" x="233.5" y="196" class="st2" width="16" height="16"/>
		</g>
		<g id="XMLID_612_">
			<rect id="XMLID_617_" x="80.5" y="219" class="st1" width="15" height="16"/>
			<rect id="XMLID_616_" x="105.5" y="219" class="st1" width="16" height="16"/>
			<rect id="XMLID_615_" x="131.5" y="219" class="st1" width="16" height="16"/>
			<rect id="XMLID_614_" x="156.5" y="219" class="st1" width="16" height="16"/>
			<rect id="XMLID_613_" x="182.5" y="219" class="st1" width="16" height="16"/>
		</g>
	</g>
	<path id="XMLID_610_" class="st3" d="M262.5,68.5V103h-195V68.5c0-5.9,5.3-10.5,11.2-10.5H252C257.9,58,262.5,62.6,262.5,68.5z"/>
	<g id="XMLID_594_">
		<g id="XMLID_605_">
			<circle id="XMLID_609_" class="st0" cx="104.8" cy="73.3" r="10"/>
			<g id="XMLID_606_">
				<path id="XMLID_608_" class="st4" d="M109.5,71.5c0,3-2.5,5.5-5.5,5.5l0,0c-3,0-5.5-2.5-5.5-5.5v-22c0-3,2.5-5.5,5.5-5.5l0,0
					c3,0,5.5,2.5,5.5,5.5V71.5z"/>
				<path id="XMLID_607_" class="st5" d="M102.5,72.5c0,0.8-0.7,1.5-1.5,1.5l0,0c-0.8,0-1.5-0.7-1.5-1.5v-23c0-0.8,0.7-1.5,1.5-1.5
					l0,0c0.8,0,1.5,0.7,1.5,1.5V72.5z"/>
			</g>
		</g>
		<g id="XMLID_600_">
			<circle id="XMLID_604_" class="st0" cx="165.3" cy="73.3" r="10"/>
			<g id="XMLID_601_">
				<path id="XMLID_603_" class="st4" d="M170.5,71.5c0,3-2.5,5.5-5.5,5.5l0,0c-3,0-5.5-2.5-5.5-5.5v-22c0-3,2.5-5.5,5.5-5.5l0,0
					c3,0,5.5,2.5,5.5,5.5V71.5z"/>
				<path id="XMLID_602_" class="st5" d="M163.5,72.5c0,0.8-0.7,1.5-1.5,1.5l0,0c-0.8,0-1.5-0.7-1.5-1.5v-23c0-0.8,0.7-1.5,1.5-1.5
					l0,0c0.8,0,1.5,0.7,1.5,1.5V72.5z"/>
			</g>
		</g>
		<g id="XMLID_595_">
			<circle id="XMLID_599_" class="st0" cx="225.9" cy="73.3" r="10"/>
			<g id="XMLID_596_">
				<path id="XMLID_598_" class="st4" d="M230.5,71.5c0,3-2.5,5.5-5.5,5.5l0,0c-3,0-5.5-2.5-5.5-5.5v-22c0-3,2.5-5.5,5.5-5.5l0,0
					c3,0,5.5,2.5,5.5,5.5V71.5z"/>
				<path id="XMLID_597_" class="st5" d="M224.5,72.5c0,0.8-0.7,1.5-1.5,1.5l0,0c-0.8,0-1.5-0.7-1.5-1.5v-23c0-0.8,0.7-1.5,1.5-1.5
					l0,0c0.8,0,1.5,0.7,1.5,1.5V72.5z"/>
			</g>
		</g>
	</g>
</g>
</svg>
