<?xml version="1.0" encoding="utf-8"?>
<!-- Generator: Adobe Illustrator 19.0.0, SVG Export Plug-In . SVG Version: 6.00 Build 0)  -->
<svg version="1.1" id="Layer_1" xmlns="http://www.w3.org/2000/svg" xmlns:xlink="http://www.w3.org/1999/xlink" x="0px" y="0px"
	 viewBox="-314 131 331 299" style="enable-background:new -314 131 331 299;" xml:space="preserve">
<style type="text/css">
	.chart_st0{fill:#FFFFFF;}
	.chart_st1{fill:none;stroke:#D8D8D8;stroke-miterlimit:10;}
	.chart_st2{fill:#B0B6B7;}
	.chart_st3{fill:#7AC943;}
	.chart_st4{fill:#3FA9F5;}
	.chart_st5{fill:#FF7BAC;}
	.chart_st6{fill:#FFFF00;}
	.chart_st7{fill:#0071BC;}
	.chart_st8{fill:#FF1D25;stroke:#FF1D25;stroke-miterlimit:10;}
	.chart_st9{fill:none;stroke:#B4B4B4;stroke-width:5;stroke-miterlimit:10;}
</style>
<g>
	<g id="XMLID_517_">
		<path id="XMLID_513_" class="chart_st0" d="M-119,310.7c0,7.4-6,13.3-13.3,13.3h-152.3c-7.4,0-13.3-6-13.3-13.3v-94.3
			c0-7.4,6-13.3,13.3-13.3h152.3c7.4,0,13.3,6,13.3,13.3V310.7z"/>
		<g id="XMLID_514_">
			<line id="XMLID_527_" class="chart_st1" x1="-119" y1="221.5" x2="-298" y2="221.5"/>
			<polyline id="XMLID_547_" class="chart_st1" points="-298,221.5 -118.5,221.5 -119,221.5 			"/>
			<line id="XMLID_526_" class="chart_st1" x1="-119" y1="231.5" x2="-298" y2="231.5"/>
			<line id="XMLID_520_" class="chart_st1" x1="-119" y1="242.5" x2="-298" y2="242.5"/>
			<line id="XMLID_525_" class="chart_st1" x1="-119" y1="252.5" x2="-298" y2="252.5"/>
			<line id="XMLID_519_" class="chart_st1" x1="-119" y1="264.5" x2="-298" y2="264.5"/>
			<line id="XMLID_521_" class="chart_st1" x1="-119" y1="275.5" x2="-298" y2="275.5"/>
			<line id="XMLID_522_" class="chart_st1" x1="-119" y1="285.5" x2="-298" y2="285.5"/>
			<line id="XMLID_523_" class="chart_st1" x1="-119" y1="296.5" x2="-298" y2="296.5"/>
			<line id="XMLID_524_" class="chart_st1" x1="-119" y1="307.5" x2="-298" y2="307.5"/>
		</g>
		<polygon id="XMLID_414_" class="chart_st2" points="-162.8,223 -165.3,242.8 -169.9,239.4 -172.4,243.6 -179,254.4 -185.5,265.2 
			-192.1,276 -203,265.2 -207.4,260.8 -210.9,265.2 -219.3,276 -227.7,286.9 -232.1,292.5 -238,286.9 -242.2,282.8 -244.2,286.9 
			-249.5,297.7 -254.7,308.5 -260,319.3 -262.8,325.1 -271.1,325 -261.6,305.3 -256.3,294.4 -251.1,283.6 -245.8,272.8 
			-243.9,268.7 -239.7,272.8 -233.8,278.5 -229.3,272.8 -220.9,262 -212.5,251.1 -209.1,246.7 -204.6,251.1 -193.7,262 
			-187.2,251.1 -180.6,240.3 -176.8,234.1 -181.2,230.8 		"/>
	</g>
	<g id="XMLID_528_">
		<path id="XMLID_438_" class="chart_st0" d="M0,345.7c0,6.8-5.5,12.3-12.3,12.3h-152.3c-6.8,0-12.3-5.5-12.3-12.3v-90.3
			c0-6.8,5.5-12.3,12.3-12.3h152.3c6.8,0,12.3,5.5,12.3,12.3V345.7z"/>
		<g id="XMLID_512_">
			<path id="XMLID_498_" class="chart_st3" d="M-128,342h-11v-54.6c0-3.3,3.1-6.4,6.4-6.4h-0.1c2.9,0,4.7,2.8,4.7,5.7V342z"/>
			<path id="XMLID_500_" class="chart_st4" d="M-110,342h-12v-75c0-2.9,2.5-5,5.4-5h0.7c3.4,0,5.9,2.6,5.9,6.1V342z"/>
			<path id="XMLID_502_" class="chart_st5" d="M-92,342h-12v-43.6c0-3.2,3.3-5.4,6.4-5.4h0.3c3,0,5.3,2.1,5.3,5.1V342z"/>
			<path id="XMLID_503_" class="chart_st6" d="M-76,342h-11v-24.4c0-3.4,3.4-6.6,6.8-6.6h-0.1c2.7,0,4.3,2.5,4.3,5.3V342z"/>
			<path id="XMLID_504_" class="chart_st7" d="M-57,342h-12v-54.6c0-3.3,3.1-6.4,6.4-6.4h0c3.4,0,5.6,3.2,5.6,6.6V342z"/>
			<path id="XMLID_511_" class="chart_st8" d="M-40.5,341.5h-11v-34.6c0-3,2.8-5.4,5.8-5.4h0c3.2,0,5.3,2.6,5.3,5.8V341.5z"/>
		</g>
		<polygon id="XMLID_518_" class="chart_st2" points="-31.7,337.5 -23,341.5 -31.7,345.4 		"/>
		<polygon id="XMLID_395_" class="chart_st2" points="-153.5,261.4 -149.6,252.7 -145.7,261.5 		"/>
		<polyline id="XMLID_499_" class="chart_st9" points="-32,341.5 -149.5,341.5 -149.5,259 		"/>
	</g>
</g>
</svg>
