<?xml version="1.0" encoding="utf-8"?>
<!-- Generator: Adobe Illustrator 19.0.0, SVG Export Plug-In . SVG Version: 6.00 Build 0)  -->
<svg version="1.1" id="Layer_1" xmlns="http://www.w3.org/2000/svg" xmlns:xlink="http://www.w3.org/1999/xlink" x="0px" y="0px"
	 viewBox="0 0 596 121" style="enable-background:new 0 0 596 121;" xml:space="preserve">
<style type="text/css">
	.st0{fill:#5D00B7;}
	.st1{fill:#F20007;}
</style>
<g id="XMLID_273_">
	<path id="XMLID_274_" class="st0" d="M79.1,12.3c0-0.8-0.2,0.4-0.5,3.7c-0.4,4.2-0.7,9.5-1,16c-0.3,7.4-0.5,15.7-0.5,25.1
		c0,15.5,0.4,26.6,1.3,33.1c0.1,0.7,0.1,1.2,0.1,1.4c0,0.4-0.3,0.7-0.8,0.7c-1.4,0.2-6.3,0.3-14.9,0.3c-2,0-3.2-0.4-3.5-1.2
		c-0.1-1.4-0.2-2.9-0.2-4.3c0-0.3-0.2-0.6-0.5-0.9c-0.2,0.1-0.5,0.3-0.8,0.7c-4.1,4-9.1,6-15.2,6c-7.9,0-14.3-2.8-19-8.3
		c-4.5-5.3-6.8-12-6.8-20.1c0-8.2,2.2-14.9,6.7-20.2c4.7-5.6,11.1-8.5,19.2-8.5c5.7,0,10.1,1.8,13.2,5.4c0.5,0.6,0.9,0.9,1.1,0.9
		c0.3,0,0.5-0.5,0.5-1.5c0-2.9-0.1-7.2-0.2-13c-0.2-5.7-0.2-10-0.2-12.9c0-1.1,0.3-1.7,0.9-1.9c2.4-0.1,5.7-0.3,9.9-0.7
		c7.5-0.9,10.8-1.4,10-1.4C78.7,10.9,79.1,11.4,79.1,12.3z M57.8,64.1c0-3-1-5.6-3.1-7.8c-2.1-2.2-4.6-3.4-7.5-3.4
		c-3.1,0-5.5,1.1-7.4,3.4c-1.8,2.2-2.7,4.9-2.7,8c0,3,0.9,5.6,2.8,7.7c1.9,2.3,4.3,3.4,7.3,3.4c3,0,5.5-1.1,7.5-3.4
		C56.8,69.8,57.8,67.1,57.8,64.1z"/>
	<path id="XMLID_277_" class="st0" d="M144,64.1c0,2.9,0.2,7.2,0.5,12.9c0.3,5.7,0.5,10,0.5,12.8c0,1.5-0.7,2.3-2,2.4
		c-4.7,0.3-10,0.5-16,0.5c-0.7,0-1.2-1.1-1.4-3.2c-0.2-2.2-0.5-3.3-0.9-3.3c-0.3,0.2-0.7,0.5-1.2,1c-4.2,4.2-8.7,6.4-13.5,6.4
		c-7.3,0-13.4-2.9-18.2-8.7c-4.5-5.4-6.8-11.9-6.8-19.4c0-8.7,2.3-15.7,7-21c4.9-5.5,11.6-8.2,20.1-8.2c5.9,0,10.6,2.1,14,6.2
		c0.1,0.2,0.3,0.3,0.4,0.3c0.3,0,0.7-0.9,1.2-2.7c0.4-1.8,0.9-2.7,1.5-2.7c1.4,0,4,0.4,7.9,1.2c3.7,0.8,6.4,1.4,8,1.9
		c0.6,0.2,0.8,0.5,0.8,0.9c0,0.2-0.1,0.5-0.2,1.2C144.6,49.3,144,56.5,144,64.1z M125.9,64.4c0-3.2-1-5.8-3-7.9
		c-2-2.1-4.6-3.1-7.9-3.1c-3.2,0-5.8,1-7.8,3.1c-2,2.1-3,4.7-3,7.9c0,3,1.1,5.7,3.2,7.8c2.1,2.2,4.7,3.3,7.7,3.3
		c3.2,0,5.8-1,7.8-3.1C124.9,70.3,125.9,67.7,125.9,64.4z"/>
	<path id="XMLID_280_" class="st0" d="M210.6,52.1c0,7.3-0.2,11.7-0.7,13.3c-0.6,1.9-4.7,8.7-12.3,20.4c-1.2,1.8-4.3,6.1-9.3,12.8
		c-5.5,7.4-8.7,11.2-9.4,11.7c-0.9,0.6-6.7,0.8-17.3,0.8c-1.6,0-2.7-0.2-3.3-0.6c-0.5-1.5-1.1-3.4-1.9-5.5c-0.6-1.3-1.2-2.6-1.8-4
		c-0.9-2-1.3-3.2-1.3-3.9c0-0.7,0.3-1.1,1-1.1c10.4,0,15.7-2.4,15.7-7.2c0-0.4-2.6-4.1-7.7-11.2c-5.3-7.2-8.2-11.8-8.7-13.7
		c-0.3-1.1-0.5-5-0.5-11.7c0-1.4,0-3.4,0.1-6.1c0.1-2.7,0.1-4.8,0.1-6.1c0-1,0.6-1.5,1.9-1.5c1.9,0,4.8,0.1,8.7,0.2
		c3.9,0.1,6.8,0.2,8.7,0.2c0.8,0,1.2,0.6,1.2,1.7c0,1.1-0.1,2.6-0.2,4.8c-0.1,2.1-0.2,3.7-0.2,4.8c0,4.7,0.1,7.9,0.2,9.6
		c0.1,1.3,1.2,3.8,3.4,7.3c2.3,3.7,3.9,5.6,4.9,5.6c0.9,0,2.3-1.8,4.4-5.5c1.9-3.5,2.9-5.8,3.1-7c0.4-3.3,0.6-6.9,0.6-10.8
		c0-1-0.1-2.6-0.3-4.6c-0.2-2.1-0.3-3.6-0.3-4.7c0-0.7,0.4-1.1,1.2-1.1c1.9,0,4.8-0.1,8.6-0.2c3.8-0.1,6.7-0.2,8.6-0.2
		c1,0,1.6,0.5,2,1.5C210.3,41.8,210.6,45.8,210.6,52.1z"/>
	<path id="XMLID_282_" class="st1" d="M255,75.8c0,1.1-0.1,2.8-0.4,5.1c-0.3,2.3-0.4,4-0.4,5s-0.1,1.8-0.3,2.1
		c-0.2,0.3-0.8,0.7-1.9,1.3c-4.8,2.7-10.2,4-16.1,4c-10.9,0-16.3-4.1-16.3-12.5c0-2.5,0.1-6.2,0.3-11.2c0.2-5,0.3-9.2,0.3-11.7
		c0-1.7-1-3-2.9-3c-0.2,0-0.4,0-0.7,0c-0.3,0-0.6,0.5-0.7,0.5c-1.4,0-2.1-0.3-2.1-1.3c0-0.6,0-1.4,0.1-2.6c0.1-1.2,0.1-2.1,0.1-2.7
		c0-0.8,0-2-0.1-3.6c-0.1-1.6-0.1-2.8-0.1-3.6c0-0.8,1.2-1.2,3.6-1.2c1.4,0,2.1-0.4,2.2-1.1c0.2-1.4,0.3-3.7,0.2-6.8
		c-0.2-4.8-0.2-7.2-0.2-6.9c0-4.4,0.4-6.5,1.2-6.5c1,0,2.5,0.2,4.3,0.7c2.1,0.5,3.6,0.8,4.5,0.8c1.9,0.3,4.8,0.6,8.7,1.1
		c0.9,0.1,1.4,0.4,1.4,1c0,1.5-0.1,3.8-0.4,6.8c-0.2,3-0.4,5.3-0.4,6.9c0,1.8,0.5,2.8,1.6,2.8c1.3,0,3.3-0.1,6-0.2
		c2.7-0.1,4.7-0.2,6-0.2c0.8,0,1.2,0.3,1.2,0.8c0,0.9-0.1,2.2-0.3,3.9c-0.2,1.7-0.3,3-0.3,3.9c0,0.9,0,2.2,0.1,3.9
		c0,1.7,0.1,3,0.1,3.9c0,0.8-0.5,1.2-1.6,1.2c-0.8,0-2-0.7-3.8-0.8c-1.8-0.1-3-0.8-3.8-0.8h-4.2c-0.6,0-1.9,2.2-1.9,3.9
		c0,0.9,0,2.2,0,4c0,1.8,0.6,3.1,0.6,4c0,3.2,0.6,5.3,1.3,6.5c1,1.6,3.1,2.4,6.1,2.4c0.9,0,2.3-0.2,4.1-0.6c1.7-0.4,3-0.6,3.7-0.6
		C254.6,74.5,255,74.9,255,75.8z"/>
	<path id="XMLID_284_" class="st1" d="M298.3,57.2c0,1.5-0.8,2.2-2.4,2.2c-0.7,0-1.8,0-3.1-0.1c-1.4-0.1-2.4-0.1-3.1-0.1
		c-3.1,0-5.2,0.5-6.4,1.5c-1.1,1-1.7,2.9-1.7,5.9c0,1.6,0,4.1,0.1,7.4c0.1,3.3,0.1,5.7,0.1,7.4c0,1.1,0.1,2.7,0.2,4.9
		c0.1,2.2,0.2,3.8,0.2,4.8c0,0.9-0.6,1.4-1.9,1.5c-1.8,0.1-4.6,0.2-8.3,0.2c-3.6,0-6.4-0.1-8.6-0.3c-1.2-0.1-1.9-0.8-1.9-1.9
		c0-3,0-7.5,0.1-13.5c0-6,0.1-10.5,0.1-13.5c0-8.8-0.8-16.1-2.4-21.8c-0.1-0.3-0.1-0.6-0.1-0.8c0-0.6,0.3-0.9,0.8-1.1
		c2.1-0.2,5.1-0.6,9.1-1.2c5.9-1.2,9-1.7,9.2-1.7c0.7,0,1.1,1.2,1.3,3.5c0.2,2.4,0.5,3.5,1,3.5c-0.5,0,1-1,4.6-3c3.6-2,7.1-3,10.4-3
		c2.1,0,3.2,0.5,3.2,1.4c0,1.1-0.1,2.6-0.3,4.6c-0.2,2.1-0.4,3.7-0.4,4.6c0,1.1,0,2.5,0.1,4.3C298.3,55,298.3,56.5,298.3,57.2z"/>
	<path id="XMLID_286_" class="st1" d="M361.5,64.1c0,2.9,0.2,7.2,0.5,12.9c0.3,5.7,0.5,10,0.5,12.8c0,1.5-0.7,2.3-2,2.4
		c-4.7,0.3-10,0.5-16,0.5c-0.7,0-1.2-1.1-1.4-3.2c-0.2-2.2-0.5-3.3-0.9-3.3c-0.3,0.2-0.7,0.5-1.2,1c-4.2,4.2-8.7,6.4-13.5,6.4
		c-7.3,0-13.4-2.9-18.2-8.7c-4.5-5.4-6.8-11.9-6.8-19.4c0-8.7,2.3-15.7,7-21c4.9-5.5,11.6-8.2,20.1-8.2c5.9,0,10.6,2.1,14,6.2
		c0.1,0.2,0.3,0.3,0.4,0.3c0.3,0,0.7-0.9,1.2-2.7c0.4-1.8,0.9-2.7,1.5-2.7c1.4,0,4,0.4,7.9,1.2c3.7,0.8,6.4,1.4,8,1.9
		c0.6,0.2,0.8,0.5,0.8,0.9c0,0.2-0.1,0.5-0.2,1.2C362.1,49.3,361.5,56.5,361.5,64.1z M343.4,64.4c0-3.2-1-5.8-3-7.9
		c-2-2.1-4.6-3.1-7.9-3.1c-3.2,0-5.8,1-7.8,3.1c-2,2.1-3,4.7-3,7.9c0,3,1.1,5.7,3.2,7.8c2.1,2.2,4.7,3.3,7.7,3.3
		c3.2,0,5.8-1,7.8-3.1C342.3,70.3,343.4,67.7,343.4,64.4z"/>
	<path id="XMLID_289_" class="st1" d="M410,55.2c0,0-1.2-0.3-3.4-0.9c-2.2-0.6-4-0.9-5.4-0.9c-3.3,0-6,1-8,3c-2,2-3,4.7-3,8
		c0,3.5,1.1,6.2,3.3,8.1c2.2,2,5,3,8.5,3c1.7,0,3.5-0.4,5.6-1.3c2.1-0.8,3-1.3,2.9-1.3c0.6,0,1.5,2.4,2.5,7.2
		c0.9,4.4,1.3,7.2,1.3,8.7c0,1.4-2.3,2.6-7,3.7c-3.6,0.8-6.5,1.2-8.7,1.2c-8.3,0-15.1-2.8-20.5-8.3c-5.4-5.6-8.1-12.5-8.1-20.8
		c0-8.2,2.7-15.1,8.1-20.8c5.4-5.6,12.2-8.4,20.4-8.4c5.6,0,10.5,1.2,14.8,3.6c1,0.5,1.5,1,1.5,1.5c0,0.5-0.6,2.7-1.7,6.6
		c-1.1,3.8-1.7,6.1-2.1,6.9C410.7,54.8,410.3,55.2,410,55.2z"/>
	<path id="XMLID_291_" class="st1" d="M483.3,55.5c0,8.3-4.1,14.6-12.2,18.9c-0.8,0.4-1.1,0.8-1.1,1.2c0,0.6,1.7,3.3,5.2,8
		c3.5,4.7,5.2,7.1,5.2,7.4c0,1-5,1.5-14.9,1.5c-3.8,0-6-0.5-6.6-1.5c-1.5-2.5-3.9-6.1-7-10.8c-0.2-0.2-3.6-0.5-10.1-0.8
		c0,1.2,0,3,0.1,5.6c0,2.6,0.1,4.5,0.1,5.7c0,1.1-0.5,1.7-1.6,1.9c-0.7,0.1-3.6,0.1-8.9,0.1c-4.5,0-6.6-0.1-7.3-0.2
		c-1-0.2-0.9-1-0.9-2.3V55.6c0-4.6-0.8-11.5-1.1-20.7c-0.3-9.2-0.8-16.1-0.8-20.7c0-0.9,0.4-1.4,1.4-1.4c2,0,4.9,0,8.9-0.1
		c1.1-0.1,2.8-0.3,5.4-0.7c2.3-0.3,4.1-0.5,5.4-0.5c0.6,0,0.9,0.5,0.9,1.6c0,1.4-0.1,3.4-0.3,5.8c-0.3,2.9-0.4,4.8-0.5,5.9
		c-0.3,8.1-0.5,14.3-0.5,18.8c0,1.1,0.1,1.6,0.4,1.6c0.3-0.2,0.8-0.6,1.4-1.2c4.9-5.1,10.8-7.6,17.8-7.6c6.6,0,11.8,1.5,15.7,4.5
		C481.2,44.2,483.3,49.1,483.3,55.5z M460.9,59.1c0-4.5-2.6-6.8-7.7-6.8c-2.3,0-4.7,0.9-7.3,2.6c-2.8,1.8-4.2,3.9-4.2,6
		c0,3.1,0.4,5,1.3,5.6c0.7,0.5,2.8,0.7,6.5,0.7C457.1,67.3,460.9,64.5,460.9,59.1z"/>
	<path id="XMLID_294_" class="st1" d="M541.7,61.7c0,3.8-1.2,6-3.7,6.5c-0.4,0.1-4.3,0.5-11.7,1.2c-4.4,0.5-11,1.1-19.8,1.7
		c0.5,2.4,2.1,4.3,4.8,5.6c2.2,1.1,4.7,1.6,7.4,1.6c3.3,0,6.7-0.9,10.1-2.7c1.4-0.9,2.9-1.8,4.3-2.7c0.8,0.4,2.1,2.3,4,5.7
		c1.9,3.5,2.8,5.7,2.8,6.6c0,0.3-0.3,0.7-0.8,1.3c-4.6,4.9-11.7,7.4-21.4,7.4c-8.9,0-16.2-2.6-21.6-7.8c-5.6-5.3-8.5-12.4-8.5-21.2
		c0-8.6,2.5-15.7,7.5-21.2c5.2-5.7,12.1-8.6,20.6-8.6c7.2,0,13.3,2.6,18.4,7.9C539.1,48.2,541.7,54.4,541.7,61.7z M521.9,58.2
		c0-2.3-0.8-4.4-2.5-6.1c-1.7-1.8-3.6-2.6-5.9-2.6c-2.4,0-4.3,1-5.9,3c-1.4,1.8-2.1,4-2.1,6.5c0,1,0.5,1.5,1.6,1.5
		c2.8,0,7.1-0.4,13-1.3C521.3,59,521.9,58.7,521.9,58.2z"/>
	<path id="XMLID_297_" class="st1" d="M585.2,57.2c0,1.5-0.8,2.2-2.4,2.2c-0.7,0-1.8,0-3.1-0.1c-1.4-0.1-2.4-0.1-3.1-0.1
		c-3.1,0-5.2,0.5-6.4,1.5c-1.1,1-1.7,2.9-1.7,5.9c0,1.6,0,4.1,0.1,7.4c0.1,3.3,0.1,5.7,0.1,7.4c0,1.1,0.1,2.7,0.2,4.9
		c0.1,2.2,0.2,3.8,0.2,4.8c0,0.9-0.6,1.4-1.9,1.5c-1.8,0.1-4.6,0.2-8.3,0.2c-3.6,0-6.4-0.1-8.6-0.3c-1.2-0.1-1.9-0.8-1.9-1.9
		c0-3,0-7.5,0.1-13.5c0-6,0.1-10.5,0.1-13.5c0-8.8-0.8-16.1-2.4-21.8c-0.1-0.3-0.1-0.6-0.1-0.8c0-0.6,0.3-0.9,0.8-1.1
		c2.1-0.2,5.1-0.6,9.1-1.2c5.9-1.2,9-1.7,9.2-1.7c0.7,0,1.1,1.2,1.3,3.5c0.2,2.4,0.5,3.5,1,3.5c-0.5,0,1-1,4.6-3c3.6-2,7.1-3,10.4-3
		c2.1,0,3.2,0.5,3.2,1.4c0,1.1-0.1,2.6-0.3,4.6c-0.2,2.1-0.4,3.7-0.4,4.6c0,1.1,0,2.5,0.1,4.3C585.2,55,585.2,56.5,585.2,57.2z"/>
</g>
</svg>
