<?xml version="1.0" encoding="utf-8"?>
<!-- Generator: Adobe Illustrator 19.0.0, SVG Export Plug-In . SVG Version: 6.00 Build 0)  -->
<svg version="1.1" id="Layer_1" xmlns="http://www.w3.org/2000/svg" xmlns:xlink="http://www.w3.org/1999/xlink" x="0px" y="0px"
	 viewBox="-235 238.1 30 30.5" style="enable-background:new -235 238.1 30 30.5;" xml:space="preserve">
<style type="text/css">
	.st0{fill:#364270;}
	.st1{fill:#FFFFFF;}
</style>
<g id="XMLID_975_">
	<path id="XMLID_985_" class="st0" d="M-104.4,286.4"/>
	<path id="XMLID_982_" class="st1" d="M-209.5,239h-20.7c-2.1,0-3.7,1.4-3.7,3.5v20.7c0,2.1,1.6,4.7,3.7,4.7h10.2l0-11h-2.6
		c-0.3,0-0.6-0.3-0.6-0.6l0-3c0-0.3,0.3-0.4,0.6-0.4h2.7v-3.7c0-3.7,2.2-5.3,5.5-5.3h2.7c0.3,0,0.8-0.1,0.8,0.2v2.8
		c0,0.3-0.5,1-0.8,1h-1.6c-1.8,0-2.5,0.5-2.5,1.7v3.3h4.3c0.4,0,0.7,0,0.6,0.4l-0.4,3.2c0,0.3-0.3,0.4-0.6,0.4h-3.5l0,11h6.1
		c2.1,0,3.5-2.6,3.5-4.7v-20.7c0-2.1-1.2-3.5-3.4-3.5H-209.5z M-209.5,238.7"/>
</g>
</svg>
