<?xml version="1.0" encoding="utf-8"?>
<!-- Generator: Adobe Illustrator 19.0.0, SVG Export Plug-In . SVG Version: 6.00 Build 0)  -->
<svg version="1.1" id="Layer_1" xmlns="http://www.w3.org/2000/svg" xmlns:xlink="http://www.w3.org/1999/xlink" x="0px" y="0px"
	 viewBox="0 0 331 299" style="enable-background:new 0 0 331 299;" xml:space="preserve">
<style type="text/css">
	.st0{fill:#FFFFFF;}
	.st1{fill:none;stroke:#D8D8D8;stroke-miterlimit:10;}
	.st2{fill:#B0B6B7;}
</style>
<g id="XMLID_517_">
	<path id="XMLID_513_" class="st0" d="M316.5,238.7c0,7.4-6,13.3-13.3,13.3H26.8c-7.4,0-13.3-6-13.3-13.3V59.3
		c0-7.4,6-13.3,13.3-13.3h276.3c7.4,0,13.3,6,13.3,13.3V238.7z"/>
	<g id="XMLID_514_">
		<line id="XMLID_527_" class="st1" x1="315.5" y1="75.5" x2="13.5" y2="75.5"/>
		<polyline id="XMLID_547_" class="st1" points="13.5,75.5 316.1,75.5 317.5,75.5 		"/>
		<line id="XMLID_526_" class="st1" x1="317.5" y1="94.5" x2="13.5" y2="94.5"/>
		<line id="XMLID_520_" class="st1" x1="317.5" y1="112.5" x2="13.5" y2="112.5"/>
		<line id="XMLID_525_" class="st1" x1="317.5" y1="130.5" x2="13.5" y2="130.5"/>
		<line id="XMLID_519_" class="st1" x1="317.5" y1="149.5" x2="13.5" y2="149.5"/>
		<line id="XMLID_521_" class="st1" x1="317.5" y1="167.5" x2="13.5" y2="167.5"/>
		<line id="XMLID_522_" class="st1" x1="317.5" y1="185.5" x2="13.5" y2="185.5"/>
		<line id="XMLID_523_" class="st1" x1="317.5" y1="203.5" x2="13.5" y2="203.5"/>
		<line id="XMLID_524_" class="st1" x1="317.5" y1="222.5" x2="13.5" y2="222.5"/>
	</g>
	<polygon id="XMLID_414_" class="st2" points="241.2,80 237.1,113.5 229.3,107.6 225,114.8 213.9,133.1 202.8,151.4 191.7,169.7 
		173.3,151.4 165.8,143.9 160,151.4 145.8,169.7 131.5,188 124,197.6 114.1,188 107,181.1 103.6,188 94.8,206.2 85.9,224.5 
		77,242.8 72.3,252.6 58.2,252.4 74.3,219 83.2,200.8 92,182.5 100.9,164.2 104.2,157.3 111.3,164.2 121.3,173.8 128.8,164.2 
		143,145.9 157.3,127.6 163.1,120.1 170.6,127.6 189,145.9 200.1,127.6 211.2,109.3 217.5,98.8 210.1,93.2 	"/>
</g>
</svg>
