<?xml version="1.0" encoding="utf-8"?>
<!-- Generator: Adobe Illustrator 19.0.0, SVG Export Plug-In . SVG Version: 6.00 Build 0)  -->
<svg version="1.1" id="Layer_1" xmlns="http://www.w3.org/2000/svg" xmlns:xlink="http://www.w3.org/1999/xlink" x="0px" y="0px"
	 viewBox="0 0 617 512" style="enable-background:new 0 0 617 512;" xml:space="preserve">
<style type="text/css">
	.st0{fill:#565656;}
	.st1{fill:url(#XMLID_67_);}
	.st2{fill:url(#XMLID_68_);}
	.st3{fill:#6F6F70;}
	.st4{fill:#939393;}
	.st5{fill:#757575;}
	.st6{fill:#9E8680;}
	.st7{fill:#B47E00;}
	.st8{fill:#660E00;}
	.st9{fill:#8F0000;}
	.st10{fill:#004A6B;}
	.st11{fill:#0055F9;}
	.st12{stroke:#000000;stroke-miterlimit:10;}
	.st13{fill:#DC0053;}
	.st14{fill:#FFE679;}
	.st15{fill:#785000;}
	.st16{fill:#3F3FFC;}
	.st17{fill:#B8B8BC;}
</style>
<g id="XMLID_311_">
	<g id="XMLID_312_">
		<rect id="XMLID_313_" x="233" y="12" class="st0" width="367" height="322"/>
		<linearGradient id="XMLID_67_" gradientUnits="userSpaceOnUse" x1="416.5" y1="295.0677" x2="416.5" y2="43.0554">
			<stop  offset="0" style="stop-color:#00B7FF"/>
			<stop  offset="1" style="stop-color:#BFFFF5"/>
		</linearGradient>
		<rect id="XMLID_314_" x="242" y="19" class="st1" width="349" height="309"/>
		<linearGradient id="XMLID_68_" gradientUnits="userSpaceOnUse" x1="415" y1="267.5455" x2="415" y2="15.6126">
			<stop  offset="0" style="stop-color:#00B7FF"/>
			<stop  offset="1" style="stop-color:#FFE5AA"/>
		</linearGradient>
		<polygon id="XMLID_315_" class="st2" points="586,294 586,328 244,328 244,294 263,294 263,143 296,143 296,294 309,294 309,118 
			372,118 372,180 394,180 394,294 405,294 405,143 422,143 422,179 457,179 457,108.1 481.5,76.1 503,104.2 503,294 518,294 
			518,236 531,236 531,123 557,123 557,234 566,234 566,246 577,246 577,294 		"/>
		<rect id="XMLID_316_" x="410" y="12" class="st0" width="12" height="322"/>
	</g>
	<path id="XMLID_317_" class="st3" d="M207,281.7c0.1,0.8-0.1,1.6-0.6,2.2c-0.6,0.8-3.9,4.8-5.1,4.8l-109-3.5
		c-0.6,0-1.1-0.5-1.1-1.1l-15.9-86.5c0-0.6,0.5-1.1,1.1-1.1l112.5,2.7c0.6,0,1.1,0.5,1.1,1.1L207,281.7z"/>
	<path id="XMLID_318_" class="st4" d="M203.7,285.3c0.2,1.9-1.3,3.7-3.2,3.7H89c-0.6,0-1.1-0.6-1.1-1.2L72,200.9
		c0-0.6,0.5-1.1,1.1-1.1l112.5,3.1c0.6,0,1.1,0.5,1.1,1.2L203.7,285.3z"/>
	<polygon id="XMLID_319_" class="st5" points="100.9,230.9 161.9,232.8 171,277 110.7,277 	"/>
	<g id="XMLID_320_">
		<path id="XMLID_321_" class="st4" d="M141.9,237.2l-31.7-1c-6.4,55.3,14,74,14,74l10.3-0.7C133.1,300.4,125.6,257.2,141.9,237.2z"
			/>
		<path id="XMLID_322_" class="st3" d="M161,253.3v-15.5l-19.1-0.6c-16.3,20-8.8,63.2-7.3,72.3l5.5-0.4
			C133,253.8,161,253.3,161,253.3z"/>
	</g>
	<rect id="XMLID_323_" x="96" y="308" class="st3" width="95" height="10"/>
	<rect id="XMLID_324_" x="75" y="308" class="st4" width="96" height="10"/>
	<polygon id="XMLID_325_" class="st3" points="72.3,200.2 75.6,196.9 85.8,197.1 85.1,200.1 	"/>
	<rect id="XMLID_326_" x="202" y="313" class="st3" width="55" height="5"/>
	<g id="XMLID_327_">
		<path id="XMLID_328_" class="st6" d="M249.2,400.6c-0.1,0.5-0.2,1-0.3,1.6c-0.6,2.8-1.4,6.7-2.3,11.5c-0.5,2.4-1.1,4.9-1.6,7.7
			c-0.6,2.7-1.2,5.6-1.9,8.6c-0.7,3-1.4,6-2.1,9.1c-0.7,3.1-1.5,6.3-2.2,9.4c-0.8,3.1-1.6,6.3-2.3,9.4c-0.8,3.1-1.6,6.1-2.3,9.1
			c-1.5,5.9-2.9,11.4-4.1,16.1c-1.2,4.7-2.2,8.6-2.9,11.4c-0.4,1.4-0.6,2.5-0.8,3.2c-0.1,0.2-0.1,0.4-0.2,0.5
			c-0.1,0.1-0.4,0.2-0.6,0.2c-0.1,0-0.1,0-0.2,0c-0.1,0-0.1,0-0.2,0c-0.1,0-0.2,0-0.3,0c-0.2,0-0.3,0-0.3,0l-0.6-0.1
			c0,0-0.1-0.1-0.3-0.1c-0.1,0-0.2-0.1-0.3-0.2c-0.1,0-0.1-0.1-0.2-0.1c0,0-0.1-0.1-0.1-0.1c-0.2-0.2-0.4-0.3-0.5-0.5
			c-0.1-0.2,0-0.3,0-0.5c0.1-0.7,0.3-1.8,0.6-3.2c0.5-2.8,1.2-6.8,2-11.6c0.8-4.8,1.8-10.4,2.9-16.4c0.5-3,1.1-6.1,1.6-9.2
			c0.6-3.1,1.2-6.3,1.7-9.5c0.6-3.2,1.2-6.4,1.8-9.5c0.6-3.1,1.2-6.2,1.8-9.2c0.6-3,1.2-5.8,1.8-8.6c0.6-2.7,1.1-5.3,1.6-7.7
			c1-4.6,1.9-8.4,2.5-11.1L249.2,400.6z"/>
		<path id="XMLID_329_" class="st6" d="M216.9,383.5c-0.1,0.5-0.2,1-0.3,1.6c-0.6,2.8-1.4,6.7-2.3,11.5c-0.5,2.4-1.1,4.9-1.6,7.7
			c-0.6,2.7-1.2,5.6-1.9,8.6c-0.7,3-1.4,6-2.1,9.1c-0.7,3.1-1.5,6.3-2.2,9.4c-0.8,3.1-1.6,6.3-2.3,9.4c-0.8,3.1-1.6,6.1-2.3,9.1
			c-1.5,5.9-2.9,11.4-4.1,16.1c-1.2,4.7-2.2,8.6-2.9,11.4c-0.4,1.4-0.6,2.5-0.8,3.2c-0.1,0.2-0.1,0.4-0.2,0.5
			c-0.1,0.1-0.4,0.2-0.6,0.2c-0.1,0-0.1,0-0.2,0c-0.1,0-0.1,0-0.2,0c-0.1,0-0.2,0-0.3,0c-0.2,0-0.3,0-0.3,0l-0.6-0.1
			c0,0-0.1-0.1-0.3-0.1c-0.1,0-0.2-0.1-0.3-0.2c-0.1,0-0.1-0.1-0.2-0.1c0,0-0.1-0.1-0.1-0.1c-0.2-0.2-0.4-0.3-0.5-0.5
			c-0.1-0.2,0-0.3,0-0.5c0.1-0.7,0.3-1.8,0.6-3.2c0.5-2.8,1.2-6.8,2-11.6c0.8-4.8,1.8-10.4,2.9-16.4c0.5-3,1.1-6.1,1.6-9.2
			c0.6-3.1,1.2-6.3,1.7-9.5c0.6-3.2,1.2-6.4,1.8-9.5c0.6-3.1,1.2-6.2,1.8-9.2c0.6-3,1.2-5.8,1.8-8.6c0.6-2.7,1.1-5.3,1.6-7.7
			c1-4.6,1.9-8.4,2.5-11.1L216.9,383.5z"/>
		<path id="XMLID_330_" class="st6" d="M354.4,494.8c-0.1,0.2-0.3,0.3-0.5,0.4c-0.1,0-0.1,0.1-0.2,0.1c-0.1,0-0.1,0.1-0.2,0.1
			c-0.1,0.1-0.2,0.1-0.3,0.1c-0.2,0.1-0.3,0.1-0.3,0.1l-0.6,0.1c0,0-0.1,0-0.3,0c-0.1,0-0.2,0-0.3-0.1c-0.1,0-0.1,0-0.2,0
			c-0.1,0-0.1,0-0.2-0.1c-0.3-0.1-0.5-0.2-0.6-0.3c-0.1-0.1-0.1-0.3-0.2-0.5c-0.1-0.7-0.3-1.8-0.5-3.2c-0.4-2.8-1.1-6.8-1.9-11.6
			c-0.8-4.8-1.7-10.4-2.6-16.4c-0.5-3-1-6.1-1.5-9.3c-0.5-3.2-1-6.4-1.5-9.6c-0.5-3.2-0.9-6.4-1.4-9.6c-0.4-3.2-0.8-6.3-1.2-9.3
			c-0.4-3-0.8-5.9-1.1-8.7c-0.3-2.8-0.6-5.4-0.9-7.8c-0.5-4.3-0.9-8-1.2-10.8l8.2-0.2c0.3,2.6,0.8,6,1.3,9.9c0.3,2.4,0.6,5,0.9,7.8
			c0.3,2.8,0.7,5.7,1,8.7c0.3,3,0.7,6.1,1,9.3c0.3,3.2,0.6,6.4,0.9,9.6c0.3,3.2,0.6,6.5,0.9,9.6c0.3,3.2,0.5,6.3,0.8,9.3
			c0.5,6.1,1,11.7,1.3,16.6c0.4,4.8,0.7,8.9,0.9,11.7c0.1,1.4,0.2,2.5,0.3,3.3C354.4,494.4,354.5,494.6,354.4,494.8z"/>
		<path id="XMLID_331_" class="st6" d="M323.4,494.7c-0.1,0.2-0.3,0.3-0.5,0.4c-0.1,0-0.1,0.1-0.2,0.1c-0.1,0-0.1,0.1-0.2,0.1
			c-0.1,0.1-0.2,0.1-0.3,0.1c-0.2,0.1-0.3,0.1-0.3,0.1l-0.6,0.1c0,0-0.1,0-0.3,0c-0.1,0-0.2,0-0.3-0.1c-0.1,0-0.1,0-0.2,0
			c-0.1,0-0.1,0-0.2-0.1c-0.3-0.1-0.5-0.2-0.6-0.3c-0.1-0.1-0.1-0.3-0.2-0.5c-0.1-0.8-0.3-1.8-0.5-3.2c-0.4-2.8-1.1-6.8-1.9-11.6
			c-0.8-4.8-1.7-10.4-2.6-16.4c-0.5-3-1-6.1-1.5-9.3c-0.5-3.2-1-6.4-1.5-9.6c-0.5-3.2-0.9-6.4-1.4-9.6c-0.4-3.2-0.8-6.3-1.2-9.3
			c-0.4-3-0.8-5.9-1.1-8.7c-0.3-2.8-0.7-5.4-0.9-7.8c-0.4-4-0.8-7.4-1.1-10l8.3-0.2c0.3,2.5,0.7,5.6,1.2,9.2c0.3,2.4,0.6,5,0.9,7.8
			c0.3,2.8,0.7,5.7,1,8.7c0.3,3,0.7,6.1,1,9.3c0.3,3.2,0.6,6.4,0.9,9.6c0.3,3.2,0.6,6.5,0.9,9.6c0.3,3.2,0.5,6.3,0.8,9.3
			c0.5,6.1,1,11.7,1.4,16.6c0.4,4.8,0.7,8.9,1,11.7c0.1,1.4,0.2,2.5,0.3,3.3C323.4,494.4,323.5,494.6,323.4,494.7z"/>
		<path id="XMLID_332_" class="st6" d="M347,388.1v7.7c0,1.4-1,2.2-2.4,2.2h0.1l-8,0.4L314,399l-8.2,0.2l-56.6,1.4l-8.4,0.2
			l-5.3,0.1c-0.5,0-0.9-0.1-1.3-0.3l-41.6-24.1c-2.3-1.3-1.4-4.6,1.2-4.6h117.7C312.9,372,347,386.7,347,388.1z"/>
		<path id="XMLID_333_" class="st6" d="M339.6,386.2c0,0-0.2-0.2-0.6-0.5c-0.3-0.3-0.7-0.8-0.9-1.3c-0.1-0.3-0.2-0.5-0.2-0.8
			c0-0.3,0.1-0.6,0.2-0.9c0.2-0.6,0.3-1.3,0.5-2.1c0.8-3.1,2-7.5,3.4-12.8c1.4-5.3,3.1-11.5,4.9-18c0.9-3.3,1.9-6.7,2.9-10.2
			c1-3.5,2-7,3-10.5c1-3.5,2.1-7,3.1-10.4c1-3.4,2-6.8,3-10.1c2-6.5,3.8-12.7,5.4-17.9c0.8-2.6,1.5-5,2.2-7.1c0.6-2.1,1.3-4,2-5.4
			c1.4-2.9,2.8-4.4,2.8-4.4l0.6,0.2c0,0,0.4,2,0.1,5.2c-0.2,1.6-0.5,3.5-1.1,5.7c-0.6,2.2-1.2,4.6-1.9,7.2c-1.4,5.3-3,11.5-4.8,18.1
			c-0.9,3.3-1.8,6.7-2.7,10.2c-0.9,3.5-1.9,7-2.9,10.5c-1,3.5-2,7-2.9,10.5c-1,3.5-1.9,6.9-2.9,10.1c-1.9,6.6-3.7,12.7-5.3,17.9
			c-1.6,5.2-2.9,9.6-3.8,12.7c-0.2,0.8-0.4,1.4-0.6,2c-0.1,0.3-0.2,0.6-0.3,0.8c-0.1,0.2-0.3,0.4-0.6,0.6c-0.4,0.3-1,0.5-1.4,0.6
			c-0.4,0.1-0.8,0.1-0.7,0.1L339.6,386.2z"/>
		<path id="XMLID_334_" class="st6" d="M370.4,278.1c-1.6,0.1-49.2-12.2-49.2-12.2l-10.8,39.7l47.3,14.1L370.4,278.1z"/>
	</g>
	<path id="XMLID_335_" class="st7" d="M294.5,289l1,9.1c0,0-29.6,5.1-40.5,5.6c-10.9,0.5-21.1-2.8-21.1-2.8l-24.1,5.8
		c0,0,5.1,9.2,23,3c0,0,14.3,1.7,14.7,2.1c0.5,0.4,5.1-2.3,5.1-2.3s47,4.8,49.6,2.6s5.4-23.1,5.4-23.1H294.5z"/>
	<path id="XMLID_336_" class="st8" d="M173.6,461l-1.1,7.6l-20.2,10.9l-15.5,3.4c0,0-0.3-0.7,0,3.3c0.3,4,25.5,3.6,26,3.5
		s18.7-4.1,18.7-4.1l1.1,5.4h6.5v-4.5c0,0,9.8-7.3,3.6-20.6l-0.7-5.7L173.6,461z"/>
	<path id="XMLID_337_" class="st9" d="M181.8,461.6l-1.1,7.6l-20.2,10.9l-15.5,3.4c0,0-0.3-0.7,0,3.3c0.3,4,25.5,3.6,26,3.5
		c0.5-0.2,18.7-4.5,18.7-4.5l1.1,5.1h7.2v-3.8c0,0,9.4-7.3,3.2-20.6l-0.9-5.7L181.8,461.6z"/>
	<path id="XMLID_338_" class="st10" d="M264,327v5.6c0,0-78.1,22.3-83.3,27.2s-7.6,102-7.6,102s8.7,3.8,14.7,2.5
		c6-1.3,7.3-95,7.3-95l90.9-24.1V327H264z"/>
	<path id="XMLID_339_" class="st11" d="M266.7,326.3c1.9,0.2,41.2,0,41.2,0s20.9,50.3,1.1,55.7c-19.8,5.5-98.9-1.6-100.7,1.1
		c5.7,26.7-3.8,83-3.8,83s-13.5,5.1-23.2-1.3c0,0,9.9-51.7,5.3-78.5c-4.7-23,5.1-23.7,6.5-24c4.1-1,77.1-19.4,77.1-19.4L266.7,326.3
		z"/>
	<path id="XMLID_340_" class="st12" d="M313.3,373.8c2.3-1,2.2-4.3,2.5-6.8c0.8-5.5,5.4-9.5,9.2-13.5c9.1-9.3,16.3-23,14.7-36.4
		c-1.4-12.2-12.1-23.4-8.8-36.1c1-3.9,3.3-7.3,4.8-11c6.9-18.1-10.8-35-6.9-53.3c1.1-5.1,3.9-9.8,4.3-15c0.5-7.9-4.6-14.2-8.9-20.2
		c-4.5-6.2-8.1-12.7-11.1-19.8c-0.1-0.3-0.2-0.5-0.5-0.7c-0.2-0.1-0.6-0.1-0.8-0.1c-6.1,0.8-12.2,1.7-18.4,2.3
		c-4.1,0.4-8.4,1-12.2,2.6c-3.5,1.5-6.3,4.8-10.4,4.6c-0.6,0-1.1-0.1-1.6,0.1c-0.4,0.2-0.7,0.6-0.9,1c-1.3,2-3.1,3.7-4.3,5.9
		c-2.6,4.9,1.3,13.5,2.1,18.7c1.1,8.1,1,16.3-2.3,23.9c-7.8,17.9-15.4,33.4-7.9,53.1c5.3,14,17.5,22.5,25.6,35.1
		c3.3,5.1,6.4,10.4,10.1,15.3c3.3,4.3,7.2,8.3,10.5,12.6c7.6,10.1,12.1,22.5,12.8,35.1"/>
	<path id="XMLID_341_" class="st13" d="M287.6,219l0.8,8.3c0,0-24.5,36.6-34,51c0,10.4,9.3,17.2,9.3,17.2l1.1,32.6l34.3,2.5l5.6-37
		c5.4,1.1,9.9,0.8,13.5-0.3c0,0,10.2-27.2,2.9-35.8c-12.8-8.6-22.9-23-25.3-27.7c-2.4-4.8-2.7-10.9-2.7-10.9H287.6z"/>
	<path id="XMLID_342_" class="st14" d="M304,294l1,8.8c0,0-29.6,4.9-40.5,5.4c-10.9,0.5-21.1-2.8-21.1-2.8l-24.1,5.8
		c0,0,5.1,9.1,23,3c0,0,14.3,1.7,14.7,2.1c0.5,0.4,5.1-2.3,5.1-2.3s47,5.1,49.6,2.9c2.7-2.2,5.4-22.8,5.4-22.8H304z"/>
	<path id="XMLID_343_" class="st14" d="M271.3,184.6c0,0,3.6-4,10.2-5.5c7.4-1.3,11.3,0.4,11.3,0.4c4.7,12.1,2.8,36.1,1,38.9
		c-1.8,2.8-10,3.7-10,3.7c-4.6-5.3-7.9-11.1-9.9-17.3l3.7-4C277.7,200.9,270.4,189.5,271.3,184.6z"/>
	<g id="XMLID_344_">
		<rect id="XMLID_345_" x="61" y="322" class="st15" width="22" height="179"/>
		<rect id="XMLID_346_" x="375" y="322" class="st15" width="23" height="179"/>
		<rect id="XMLID_347_" x="41" y="325" class="st15" width="386" height="9"/>
		<rect id="XMLID_348_" x="16" y="318" class="st7" width="427" height="7"/>
	</g>
	<rect id="XMLID_349_" x="365" y="308" class="st16" width="42" height="10"/>
	<polygon id="XMLID_350_" class="st16" points="433,256.5 386.4,308 381.7,308 433,251.7 	"/>
	<polygon id="XMLID_351_" class="st16" points="434.9,254 399.4,215.1 401.8,212.7 439.7,254.8 	"/>
	<circle id="XMLID_352_" class="st16" cx="437" cy="251.8" r="9.4"/>
	<g id="XMLID_353_">
		<g id="XMLID_354_">
			<path id="XMLID_355_" class="st16" d="M376.1,222.1c12.4,11.8,21.1,22.8,19.7,24.8c6.4-8.2,11.2-32.7-0.8-44.2
				c-12.1-11.5-36.7-5.8-44.6,1C352.2,202.1,363.7,210.3,376.1,222.1z"/>
			<path id="XMLID_356_" class="st17" d="M350.2,203.7C350.2,203.7,350.2,203.7,350.2,203.7C350.3,203.7,350.3,203.7,350.2,203.7
				C350.3,203.7,350.3,203.7,350.2,203.7z"/>
			<path id="XMLID_357_" class="st17" d="M395.7,246.9C395.7,246.9,395.7,246.9,395.7,246.9C395.7,247,395.7,246.9,395.7,246.9
				C395.7,246.9,395.7,246.9,395.7,246.9z"/>
			<path id="XMLID_358_" class="st17" d="M376.1,222.1c-12.4-11.8-23.8-19.9-25.7-18.4c0,0-0.1,0-0.1,0.1
				c-1.7,1.8,7.1,12.9,19.6,24.9c12.5,11.9,24.1,20.1,25.8,18.4c0,0,0-0.1,0.1-0.1C397.2,244.9,388.5,233.9,376.1,222.1z"/>
		</g>
		<path id="XMLID_359_" class="st16" d="M409.3,204.5l-7,8.1c-4,4.6-10.9,5.1-15.5,1.1l0,0c-4.6-4-5.1-10.9-1.1-15.5l7-8.1
			c4-4.6,10.9-5.1,15.5-1.1l0,0C412.8,193,413.3,199.9,409.3,204.5z"/>
	</g>
</g>
</svg>
