<?xml version="1.0" encoding="utf-8"?>
<!-- Generator: Adobe Illustrator 19.0.0, SVG Export Plug-In . SVG Version: 6.00 Build 0)  -->
<svg version="1.1" id="Layer_1" xmlns="http://www.w3.org/2000/svg" xmlns:xlink="http://www.w3.org/1999/xlink" x="0px" y="0px"
	 viewBox="-235 238.1 30 30.5" style="enable-background:new -235 238.1 30 30.5;" xml:space="preserve">
<style type="text/css">
	.st0{fill:#FFFFFF;}
</style>
<g id="XMLID_978_">
	<path id="XMLID_992_" class="st0" d="M-208.2,239h-23.3c-1.4,0-2.6,1.3-2.6,2.7V265c0,1.4,1.1,3,2.6,3h23.3c1.4,0,2.2-1.6,2.2-3
		v-23.3C-206,240.3-206.8,239-208.2,239L-208.2,239z M-225,264.3c0,0.4-0.3,0.7-0.7,0.7h-3.5c-0.4,0-0.7-0.3-0.7-0.7v-13.5
		c0-0.4,0.3-0.7,0.7-0.7h3.5c0.4,0,0.7,0.3,0.7,0.7V264.3z M-227.6,248.3c-1.7,0-3-1.4-3-3c0-1.7,1.4-3,3-3c1.7,0,3,1.4,3,3
		C-224.5,247-225.9,248.3-227.6,248.3L-227.6,248.3z M-208.8,263.5c0,0.4-0.1,0.5-0.5,0.5h-3.4c-0.4,0-0.3,0.1-0.3-0.3v-6.3
		c0-0.9,0.3-4.1-2.4-4.1c-2.1,0-2.6,2.2-2.6,3.1v7.2c0,0.4-0.7,0.3-1.1,0.3h-3.3c-0.4,0-0.6,0.1-0.6-0.3v-13.5
		c0-0.4,0.2-0.2,0.6-0.2h3.3c0.4,0,1.1-0.1,1.1,0.2v1.2c0-1.2,1.5-2.1,4-2.1c5.5,0,5,5.1,5,7.9v6.5L-208.8,263.5z M-208.6,263.7"/>
</g>
</svg>
