<?xml version="1.0" encoding="utf-8"?>
<!-- Generator: Adobe Illustrator 19.0.0, SVG Export Plug-In . SVG Version: 6.00 Build 0)  -->
<svg version="1.1" id="Layer_1" xmlns="http://www.w3.org/2000/svg" xmlns:xlink="http://www.w3.org/1999/xlink" x="0px" y="0px"
	 viewBox="0 0 359.5 76.5" style="enable-background:new 0 0 359.5 76.5;" xml:space="preserve">
<style type="text/css">
	.st0{fill:#FFFFFF;}
</style>
<g id="XMLID_844_">
	<path id="XMLID_867_" class="st0" d="M44,7.1c0-0.5-0.1,0.3-0.3,2.3c-0.3,2.5-0.4,5.8-0.6,9.7c-0.2,4.5-0.3,9.6-0.3,15.3
		c0,9.4,0.3,16.2,0.8,20.2c0,0.4,0.1,0.7,0.1,0.8c0,0.3-0.2,0.4-0.5,0.4c-0.8,0.1-3.9,0.2-9.1,0.2c-1.2,0-1.9-0.2-2.1-0.7
		c0-0.9-0.1-1.7-0.1-2.6c0-0.2-0.1-0.4-0.3-0.5c-0.1,0.1-0.3,0.2-0.5,0.4c-2.5,2.4-5.6,3.6-9.3,3.6c-4.8,0-8.7-1.7-11.6-5.1
		C7.4,47.9,6,43.8,6,38.9c0-5,1.4-9.1,4.1-12.3c2.9-3.4,6.8-5.1,11.7-5.1c3.5,0,6.1,1.1,8.1,3.3c0.3,0.4,0.5,0.5,0.7,0.5
		c0.2,0,0.3-0.3,0.3-0.9c0-1.8,0-4.4-0.1-7.9c-0.1-3.5-0.1-6.1-0.1-7.9c0-0.7,0.2-1,0.5-1.1c1.5-0.1,3.5-0.2,6-0.4
		c4.6-0.6,6.6-0.9,6.1-0.9C43.7,6.3,44,6.5,44,7.1z M31,38.7c0-1.8-0.6-3.4-1.9-4.8c-1.3-1.4-2.8-2-4.6-2c-1.9,0-3.4,0.7-4.5,2
		c-1.1,1.4-1.7,3-1.7,4.9c0,1.9,0.6,3.4,1.7,4.7c1.1,1.4,2.6,2.1,4.5,2.1c1.8,0,3.4-0.7,4.6-2.1C30.4,42.1,31,40.5,31,38.7z"/>
	<path id="XMLID_864_" class="st0" d="M83.5,38.7c0,1.8,0.1,4.4,0.3,7.9c0.2,3.5,0.3,6.1,0.3,7.8c0,0.9-0.4,1.4-1.2,1.5
		c-2.8,0.2-6.1,0.3-9.7,0.3c-0.4,0-0.7-0.7-0.9-2c-0.1-1.3-0.3-2-0.5-2c-0.2,0.1-0.4,0.3-0.7,0.6c-2.6,2.6-5.3,3.9-8.2,3.9
		c-4.5,0-8.2-1.8-11.1-5.3c-2.8-3.3-4.2-7.2-4.2-11.8c0-5.3,1.4-9.5,4.3-12.8c3-3.3,7-5,12.2-5c3.6,0,6.4,1.3,8.5,3.8
		c0.1,0.1,0.2,0.2,0.2,0.2c0.2,0,0.4-0.6,0.7-1.7c0.3-1.1,0.6-1.7,0.9-1.7c0.8,0,2.5,0.2,4.8,0.7c2.3,0.5,3.9,0.8,4.9,1.2
		c0.3,0.1,0.5,0.3,0.5,0.5c0,0.1,0,0.3-0.1,0.7C83.9,29.7,83.5,34,83.5,38.7z M72.5,38.9c0-1.9-0.6-3.6-1.8-4.8
		c-1.2-1.3-2.8-1.9-4.8-1.9c-2,0-3.6,0.6-4.8,1.9c-1.2,1.3-1.8,2.9-1.8,4.8c0,1.9,0.6,3.4,1.9,4.8c1.3,1.3,2.8,2,4.7,2
		c1.9,0,3.5-0.6,4.8-1.9C71.9,42.4,72.5,40.8,72.5,38.9z"/>
	<path id="XMLID_862_" class="st0" d="M124.1,31.3c0,4.4-0.1,7.1-0.4,8.1c-0.3,1.1-2.8,5.3-7.5,12.4c-0.7,1.1-2.6,3.7-5.7,7.8
		c-3.4,4.5-5.3,6.9-5.7,7.1c-0.5,0.3-4.1,0.5-10.5,0.5c-1,0-1.6-0.1-2-0.3c-0.3-0.9-0.7-2-1.1-3.3c-0.4-0.8-0.7-1.6-1.1-2.4
		c-0.5-1.2-0.8-2-0.8-2.4c0-0.4,0.2-0.7,0.6-0.7c6.4,0,9.5-1.5,9.5-4.4c0-0.3-1.6-2.5-4.7-6.8c-3.2-4.4-5-7.2-5.3-8.4
		c-0.2-0.7-0.3-3-0.3-7.1c0-0.8,0-2.1,0.1-3.7c0-1.7,0.1-2.9,0.1-3.7c0-0.6,0.4-0.9,1.1-0.9c1.2,0,2.9,0,5.3,0.1
		c2.4,0.1,4.1,0.1,5.3,0.1c0.5,0,0.7,0.4,0.7,1.1c0,0.6,0,1.6-0.1,2.9c-0.1,1.3-0.1,2.3-0.1,2.9c0,2.9,0,4.8,0.1,5.9
		c0.1,0.8,0.8,2.3,2.1,4.5c1.4,2.3,2.4,3.4,3,3.4c0.5,0,1.4-1.1,2.7-3.4c1.2-2.1,1.8-3.6,1.9-4.3c0.2-2,0.3-4.2,0.3-6.6
		c0-0.6-0.1-1.6-0.2-2.8c-0.1-1.3-0.2-2.2-0.2-2.8c0-0.4,0.2-0.7,0.7-0.7c1.2,0,2.9,0,5.2-0.1c2.3-0.1,4.1-0.1,5.2-0.1
		c0.6,0,1,0.3,1.2,0.9C123.9,25.1,124.1,27.5,124.1,31.3z"/>
	<path id="XMLID_860_" class="st0" d="M151.1,45.8c0,0.7-0.1,1.7-0.3,3.1c-0.2,1.4-0.3,2.4-0.3,3.1c0,0.7-0.1,1.1-0.2,1.3
		c-0.1,0.2-0.5,0.4-1.1,0.8c-3,1.6-6.2,2.4-9.8,2.4c-6.6,0-9.9-2.5-9.9-7.6c0-1.5,0.1-3.8,0.2-6.8c0.1-3,0.2-5.4,0.2-6.9
		c0-1-0.6-1.6-1.8-1.6c-0.1,0-0.2,0-0.4,0s-0.4,0.1-0.4,0.1c-0.9,0-1.3-0.3-1.3-0.9c0-0.4,0-0.9,0.1-1.7c0.1-0.8,0.1-1.3,0.1-1.7
		c0-0.5,0-1.2-0.1-2.2c-0.1-1-0.1-1.7-0.1-2.2c0-0.5,0.7-0.7,2.2-0.8c0.8,0,1.3-0.3,1.3-0.7c0.1-0.9,0.2-2.2,0.1-4.1
		c-0.1-3-0.1-4.4-0.1-4.2c0-2.7,0.3-4,0.8-4c0.6,0,1.5,0.1,2.6,0.4c1.3,0.3,2.2,0.5,2.7,0.5c1.2,0.2,2.9,0.4,5.3,0.7
		c0.6,0,0.9,0.2,0.9,0.6c0,0.9-0.1,2.3-0.2,4.2c-0.1,1.9-0.2,3.2-0.2,4.2c0,1.1,0.3,1.7,1,1.7c0.8,0,2,0,3.6-0.1
		c1.6-0.1,2.8-0.1,3.7-0.1c0.5,0,0.8,0.2,0.8,0.5c0,0.5-0.1,1.3-0.2,2.4c-0.1,1.1-0.2,1.8-0.2,2.4c0,0.5,0,1.4,0,2.4
		c0,1.1,0,1.9,0,2.4c0,0.5-0.3,0.7-1,0.7c-0.5,0-1.2-0.2-2.3-0.3c-1.1,0-1.8-0.3-2.3-0.3h-2.6c-0.3,0-1.9,1-1.9,2c0,0.5,0,1.4,0,2.4
		c0,1.1,0.7,1.9,0.7,2.4c0,1.9,0.6,3.2,1,4c0.6,1,2,1.5,3.8,1.5c0.6,0,1.5-0.1,2.5-0.4c1.1-0.3,1.9-0.4,2.3-0.4
		C150.8,45,151.1,45.3,151.1,45.8z"/>
	<path id="XMLID_858_" class="st0" d="M177.5,34.4c0,0.9-0.5,1.3-1.5,1.3c-0.4,0-1.1,0-1.9-0.1c-0.8-0.1-1.5-0.1-1.9-0.1
		c-1.9,0-3.2,0.3-3.9,0.9c-0.7,0.6-1,1.8-1,3.6c0,1,0,2.5,0.1,4.5c0,2,0.1,3.5,0.1,4.5c0,0.7,0,1.7,0.1,3c0.1,1.3,0.1,2.3,0.1,2.9
		c0,0.5-0.4,0.9-1.1,0.9c-1.1,0.1-2.8,0.1-5,0.1c-2.2,0-3.9-0.1-5.2-0.2c-0.8-0.1-1.1-0.5-1.1-1.1c0-1.8,0-4.6,0-8.2
		c0-3.6,0-6.4,0-8.2c0-5.4-0.5-9.8-1.5-13.3c0-0.2-0.1-0.4-0.1-0.5c0-0.3,0.2-0.6,0.5-0.7c1.3-0.1,3.1-0.4,5.5-0.8
		c3.6-0.7,5.5-1.1,5.6-1.1c0.4,0,0.7,0.7,0.8,2.2c0.1,1.4,0.3,2.2,0.6,2.2c-0.3,0,0.6-0.6,2.8-1.8c2.2-1.2,4.3-1.8,6.3-1.8
		c1.3,0,1.9,0.3,1.9,0.8c0,0.7-0.1,1.6-0.2,2.8c-0.1,1.3-0.2,2.2-0.2,2.8c0,0.7,0,1.5,0,2.6C177.5,33.1,177.5,34,177.5,34.4z"/>
	<path id="XMLID_855_" class="st0" d="M216,38.7c0,1.8,0.1,4.4,0.3,7.9c0.2,3.5,0.3,6.1,0.3,7.8c0,0.9-0.4,1.4-1.2,1.5
		c-2.8,0.2-6.1,0.3-9.7,0.3c-0.4,0-0.7-0.7-0.9-2c-0.1-1.3-0.3-2-0.5-2c-0.2,0.1-0.4,0.3-0.7,0.6c-2.6,2.6-5.3,3.9-8.2,3.9
		c-4.5,0-8.2-1.8-11.1-5.3c-2.8-3.3-4.2-7.2-4.2-11.8c0-5.3,1.4-9.5,4.3-12.8c3-3.3,7-5,12.2-5c3.6,0,6.4,1.3,8.5,3.8
		c0.1,0.1,0.2,0.2,0.2,0.2c0.2,0,0.4-0.6,0.7-1.7c0.3-1.1,0.6-1.7,0.9-1.7c0.8,0,2.5,0.2,4.8,0.7c2.3,0.5,3.9,0.8,4.9,1.2
		c0.3,0.1,0.5,0.3,0.5,0.5c0,0.1,0,0.3-0.1,0.7C216.4,29.7,216,34,216,38.7z M204.9,38.9c0-1.9-0.6-3.6-1.8-4.8
		c-1.2-1.3-2.8-1.9-4.8-1.9c-2,0-3.6,0.6-4.8,1.9c-1.2,1.3-1.8,2.9-1.8,4.8c0,1.9,0.6,3.4,1.9,4.8c1.3,1.3,2.8,2,4.7,2
		c1.9,0,3.5-0.6,4.8-1.9S204.9,40.8,204.9,38.9z"/>
	<path id="XMLID_853_" class="st0" d="M245.5,33.2c0,0-0.7-0.2-2.1-0.5c-1.4-0.4-2.5-0.5-3.3-0.5c-2,0-3.7,0.6-4.9,1.8
		c-1.2,1.2-1.8,2.9-1.8,4.9c0,2.1,0.7,3.8,2,5c1.3,1.2,3.1,1.8,5.2,1.8c1,0,2.1-0.3,3.4-0.8c1.3-0.5,1.9-0.8,1.8-0.8
		c0.4,0,0.9,1.5,1.5,4.4c0.5,2.7,0.8,4.4,0.8,5.3c0,0.9-1.4,1.6-4.3,2.2c-2.2,0.5-4,0.7-5.3,0.7c-5,0-9.2-1.7-12.5-5.1
		c-3.3-3.4-4.9-7.6-4.9-12.7c0-5,1.6-9.2,4.9-12.6c3.3-3.4,7.4-5.1,12.4-5.1c3.4,0,6.4,0.7,9,2.2c0.6,0.3,0.9,0.6,0.9,0.9
		c0,0.3-0.3,1.6-1,4c-0.6,2.3-1.1,3.7-1.3,4.2C245.9,33,245.7,33.2,245.5,33.2z"/>
	<path id="XMLID_850_" class="st0" d="M290.2,33.4c0,5.1-2.5,8.9-7.4,11.5c-0.5,0.2-0.7,0.5-0.7,0.7c0,0.4,1.1,2,3.2,4.9
		c2.1,2.8,3.2,4.3,3.2,4.5c0,0.6-3,0.9-9.1,0.9c-2.3,0-3.7-0.3-4-0.9c-0.9-1.5-2.3-3.7-4.3-6.6c-0.1-0.1-2.2-0.3-6.2-0.5
		c0,0.7,0,1.8,0,3.4c0,1.6,0,2.7,0,3.5c0,0.7-0.3,1.1-1,1.1c-0.4,0-2.2,0.1-5.4,0.1c-2.8,0-4.7,0-5.2-0.1c-0.6-0.1-1.3-0.6-1.3-1.4
		v-21c0-2.8,0.3-7,0-12.6c-0.2-5.6-0.1-9.8-0.1-12.6c0-0.5,0.4-0.8,1-0.9c1.2,0,3.1,0,5.5-0.1c0.6,0,1.8-0.2,3.4-0.4
		c1.4-0.2,2.5-0.3,3.3-0.3c0.4,0,0.6,0.3,0.6,1c0,0.9-0.1,2-0.2,3.5c-0.2,1.7-0.3,2.9-0.3,3.6c-0.2,4.9-0.3,8.7-0.3,11.4
		c0,0.6,0.1,1,0.2,1c0.2-0.1,0.5-0.4,0.8-0.8c3-3.1,6.6-4.6,10.8-4.6c4,0,7.2,0.9,9.5,2.7C288.9,26.5,290.2,29.5,290.2,33.4z
		 M276.6,35.6c0-2.8-1.6-4.2-4.7-4.2c-1.4,0-2.9,0.5-4.5,1.6c-1.7,1.1-2.5,2.3-2.5,3.7c0,1.9,0.3,3,0.8,3.4c0.4,0.3,1.7,0.4,3.9,0.4
		C274.2,40.6,276.6,38.9,276.6,35.6z"/>
	<path id="XMLID_847_" class="st0" d="M325.7,37.2c0,2.3-0.7,3.6-2.2,3.9c-0.3,0-2.6,0.3-7.1,0.8c-2.7,0.3-6.7,0.7-12.1,1.1
		c0.3,1.5,1.3,2.6,2.9,3.4c1.3,0.6,2.8,1,4.5,1c2,0,4.1-0.5,6.1-1.6c0.9-0.5,1.7-1.1,2.6-1.6c0.5,0.2,1.3,1.4,2.4,3.5
		c1.1,2.1,1.7,3.4,1.7,4c0,0.2-0.2,0.4-0.5,0.8c-2.8,3-7.1,4.5-13,4.5c-5.4,0-9.8-1.6-13.2-4.8c-3.4-3.2-5.1-7.5-5.1-12.9
		c0-5.3,1.5-9.6,4.6-12.9c3.2-3.5,7.3-5.2,12.6-5.2c4.4,0,8.1,1.6,11.2,4.8C324.2,29,325.7,32.8,325.7,37.2z M313.7,35.1
		c0-1.4-0.5-2.7-1.5-3.7c-1-1.1-2.2-1.6-3.6-1.6c-1.4,0-2.6,0.6-3.6,1.8c-0.9,1.1-1.3,2.4-1.3,3.9c0,0.6,0.3,0.9,1,0.9
		c1.7,0,4.3-0.3,7.9-0.8C313.3,35.5,313.7,35.3,313.7,35.1z"/>
	<path id="XMLID_845_" class="st0" d="M352.3,34.4c0,0.9-0.5,1.3-1.5,1.3c-0.4,0-1.1,0-1.9-0.1c-0.8-0.1-1.5-0.1-1.9-0.1
		c-1.9,0-3.2,0.3-3.9,0.9c-0.7,0.6-1,1.8-1,3.6c0,1,0,2.5,0.1,4.5c0,2,0.1,3.5,0.1,4.5c0,0.7,0,1.7,0.1,3c0.1,1.3,0.1,2.3,0.1,2.9
		c0,0.5-0.4,0.9-1.1,0.9c-1.1,0.1-2.8,0.1-5,0.1c-2.2,0-3.9-0.1-5.2-0.2c-0.8-0.1-1.1-0.5-1.1-1.1c0-1.8,0-4.6,0-8.2
		c0-3.6,0-6.4,0-8.2c0-5.4-0.5-9.8-1.5-13.3c0-0.2-0.1-0.4-0.1-0.5c0-0.3,0.2-0.6,0.5-0.7c1.3-0.1,3.1-0.4,5.5-0.8
		c3.6-0.7,5.5-1.1,5.6-1.1c0.4,0,0.7,0.7,0.8,2.2c0.1,1.4,0.3,2.2,0.6,2.2c-0.3,0,0.6-0.6,2.8-1.8c2.2-1.2,4.3-1.8,6.3-1.8
		c1.3,0,1.9,0.3,1.9,0.8c0,0.7-0.1,1.6-0.2,2.8c-0.1,1.3-0.2,2.2-0.2,2.8c0,0.7,0,1.5,0,2.6C352.2,33.1,352.3,34,352.3,34.4z"/>
</g>
</svg>
