<?xml version="1.0" encoding="utf-8"?>
<!-- Generator: Adobe Illustrator 19.0.0, SVG Export Plug-In . SVG Version: 6.00 Build 0)  -->
<svg version="1.1" id="Layer_1" xmlns="http://www.w3.org/2000/svg" xmlns:xlink="http://www.w3.org/1999/xlink" x="0px" y="0px"
	 viewBox="-235 238.1 30 30.5" style="enable-background:new -235 238.1 30 30.5;" xml:space="preserve">
<style type="text/css">
	.st0{fill:#FFFFFF;}
</style>
<g id="XMLID_988_">
	<path id="XMLID_989_" class="st0" d="M-206.2,244.4c-0.6,0.3-1.3,0.5-2,0.7c0.7-0.7,1.3-1.6,1.6-2.6c0.1-0.3-0.2-0.5-0.5-0.4
		c-0.9,0.6-1.9,1-3,1.2c-0.1,0-0.1,0-0.2,0c-0.2,0-0.4-0.1-0.5-0.2c-1.1-1-2.6-1.5-4.1-1.5c-0.6,0-1.3,0.1-1.9,0.3
		c-2,0.6-3.5,2.3-4,4.3c-0.2,0.8-0.2,1.5-0.1,2.3c0,0.1,0,0.3-0.1,0.3c0,0-0.1,0.2-0.2,0.2c0,0,0,0,0,0c-4.3-1-8.3-2.6-11-6
		c-0.1-0.2-0.4-0.2-0.5,0c-0.5,0.9-0.8,2-0.8,3c0,1.7,0.7,3.2,1.8,4.3c-0.5-0.1-1-0.3-1.4-0.5c-0.2-0.1-0.5,0.2-0.5,0.4
		c0,2.5,1.4,4.8,3.6,5.8c0,0-0.1,0-0.1,0c-0.3,0-0.7-0.2-1-0.2c-0.2,0-0.4,0.1-0.4,0.3c0.7,2.2,2.6,3.7,4.8,4.1
		c-1.9,1.3-4.1,1.8-6.3,1.8h-0.7c-0.2,0-0.4,0.2-0.5,0.4c-0.1,0.2,0,0.5,0.2,0.6c2.6,1.5,5.5,2.3,8.4,2.3c2.6,0,5-0.5,7.2-1.5
		c2-0.9,3.8-2.3,5.3-4c1.4-1.6,2.3-3.4,3.1-5.4c0.7-1.9,0.9-4,0.9-5.9v-0.1c0-0.3,0.3-0.6,0.6-0.8c0.9-0.8,1.8-1.7,2.5-2.7
		C-205.8,244.6-205.9,244.3-206.2,244.4L-206.2,244.4z M-206.2,244.4"/>
</g>
</svg>
