<?xml version="1.0" encoding="utf-8"?>
<!-- Generator: Adobe Illustrator 19.0.0, SVG Export Plug-In . SVG Version: 6.00 Build 0)  -->
<svg version="1.1" id="Layer_1" xmlns="http://www.w3.org/2000/svg" xmlns:xlink="http://www.w3.org/1999/xlink" x="0px" y="0px"
	 viewBox="0 0 331 299" style="enable-background:new 0 0 331 299;" xml:space="preserve">
<style type="text/css">
	.st0{fill:#C6C6C6;}
	.st1{fill:#2D2900;}
	.st2{fill:#FFFFFF;}
	.st3{fill:#D9B500;}
	.st4{fill:#C7CE91;}
	.st5{fill:#18FF81;}
	.st6{fill:#898989;}
	.st7{fill:#F7FFDB;}
	.st8{fill:#590004;}
</style>
<g id="XMLID_556_">
	<path id="XMLID_436_" class="st0" d="M268.6,277H62.4c-5.8,0-9.7-6.3-7.4-11.7l16.7-38.9c1.3-3,4.2-5,7.5-5l173.7,1.3
		c3.2,0,6.1,1.9,7.4,4.9l15.8,37.7C278.3,270.7,274.4,277,268.6,277z"/>
	<g id="XMLID_389_">
		<path id="XMLID_665_" class="st1" d="M180,238.9c0,0-4.5,10.1-37.4,10.2c-32.9,0-37.4-10.2-37.4-10.2s0.5-31.4,0.2-63.8
			c-0.3-32.4,28.2-71.7,28.2-71.7V38.8c0-1.4,1-2.7,2.4-2.7c0,0-0.1-0.1-0.1-0.1h0.7V25.3c0-1.6,1.5-2.3,3.1-2.3h5.9
			c1.6,0,2,0.8,2,2.3V36h1.8c0,0-0.2,0.1-0.1,0.1c1.4,0,2.4,1.3,2.4,2.7v64.7c0,0,28.6,39.3,28.2,71.7
			C179.4,207.5,180,238.9,180,238.9z"/>
		<path id="XMLID_664_" class="st2" d="M171.9,223.6c-19,4.9-39,4.7-59.3-0.1c-1.7-0.4-3-1.9-3-3.6v-37.1c0-2.3,2.4-4.1,4.7-3.6
			c17.5,3.4,36.3,2.9,56.1-0.2c2.3-0.4,4.3,1.4,4.3,3.7V220C174.5,221.7,173.5,223.2,171.9,223.6z"/>
		<path id="XMLID_662_" class="st3" d="M149.3,36h-13.6c0,0,0.1,0,0.1,0h0.7V25.3c0-1.6,1.5-2.3,3.1-2.3h5.9c1.6,0,2,0.8,2,2.3V36
			H149.3C149.3,36,149.3,36,149.3,36z"/>
		<path id="XMLID_494_" class="st4" d="M144.5,44v69.2c0,0.2-0.2,0.4-0.2,0.7c-0.1,0.9-0.4,1.8-0.8,2.7c-5.5,11.7-10.6,34-11.9,45.4
			c-0.4,3.4-2.7,5.6-5,4.9c0,0-0.1,0-0.1,0c-2.1-0.6-3.5-3.3-3.3-6.3c1.2-19.5,9.4-41.7,12.9-50.5c0.4-0.9,1.4-1.7,1.4-2.2V44H144.5
			z"/>
		<path id="XMLID_491_" class="st4" d="M144.1,113.2v0.7h0C144.1,113.6,144.1,113.4,144.1,113.2z"/>
	</g>
	<g id="XMLID_392_">
		<path id="XMLID_429_" class="st5" d="M181.8,207.4L181.8,207.4L181.8,207.4C181.9,207.5,181.9,207.5,181.8,207.4
			C181.8,207.4,181.8,207.4,181.8,207.4z"/>
		<path id="XMLID_422_" class="st6" d="M206.8,189c-10.1,13.1-20.3,14.7-21.3,16.1v0.9h-4v-0.9c-2-1.3-10.9-2.9-21-16.1
			c-2.9-3.7-6.2-12.2,1.5-44.7c7-0.2,14,0.1,20.9,0c0.2,0,0.5,0,0.8,0c0.3,0,0.6,0,0.9,0c7.4,0.1,14-0.2,21,0
			C213.3,176.8,209.7,185.3,206.8,189z"/>
		<path id="XMLID_416_" class="st2" d="M206.8,189c-10.1,13.1-20.3,14.7-21.3,16.1v0.9h-4v-0.9c-2-1.3-10.9-2.9-21-16.1
			c-1.8-2.4-3.8-6.8-3-18.4c0.5-6.3,1.8-14.8,4.6-26.3c7-0.2,13.9,0.1,20.9,0c0.2,0,0.5,0,0.7,0c0.3,0,0.6,0,0.9,0
			c7.4,0.1,14-0.2,21,0c2.7,11.3,4,19.7,4.5,26C210.9,182.1,208.7,186.6,206.8,189z"/>
		<path id="XMLID_415_" class="st5" d="M181.9,207.5L181.9,207.5L181.9,207.5C181.8,207.4,181.8,207.4,181.9,207.5
			C181.9,207.4,181.9,207.5,181.9,207.5z"/>
		<path id="XMLID_482_" class="st7" d="M211.8,170.2c0,0-0.3-0.1-0.3-0.1v0c0-6.8-1.6-16-4.5-28.2c-7.6-0.2-14.6,0.1-22.6,0
			c-0.3,0-0.5,0-0.9,0c-0.3,0-0.5,0-0.8,0c-7.5,0.1-15.5-0.2-23,0c-2.9,12.3-4.3,21.5-5.3,28.3c0,0,0,0,0,0c0,2,0.3,3.7,0.3,5.3
			c0,8.7,2.2,13,3.8,15.2c6.4,8.4,13,12.4,17.4,15.4c0,0,0,0,0,0c0.5,0,0.9-0.1,1.3,0.1c2.3,1.1,3.9,1.5,4.5,2c0,0,0-0.1,0-0.1h-0.3
			v39.8c-13,1.9-19.2,3.2-19.1,3.8c0.1,0.7,7.4,0.7,21.2,0c13.8,0.7,21.2,0.6,21.2,0c0.1-0.7-6.3-1.9-19.3-3.8v-40
			c1-1.4,12.2-3.4,23.1-17.6c1.4-1.8,3-4.8,3.5-10.8c0.1-1.3,0-2.8,0-4.4C212.2,173.6,211.9,172,211.8,170.2z M206.8,189
			c-10.1,13.1-20.3,14.7-21.3,16.1v0.9h-4v-0.9c-2-1.3-10.9-2.9-21-16.1c-1.6-2.1-3.3-5.7-3.2-14.1c0-0.2,0-0.4,0.1-0.6
			c0-0.2,0-0.4,0-0.7c0-0.3,0-0.6,0-0.9c0-0.6,0.1-1.2,0.1-1.8v0c0-0.2,0.1-0.4,0.1-0.6c0-0.6,0.1-1.1,0.2-1.7
			c0.1-0.6,0.1-1.2,0.2-1.9c0-0.2,0.1-0.5,0.1-0.7c0-0.3,0.1-0.7,0.1-1.1c0-0.3,0.1-0.6,0.1-0.9c0-0.2,0-0.3,0.1-0.5
			c0.1-0.5,0.1-1,0.2-1.5c0.1-0.5,0.2-1.1,0.3-1.6c0-0.2,0.1-0.5,0.1-0.7c0,0,0-0.1,0-0.1c0.1-0.5,0.2-1,0.2-1.4
			c0.3-1.5,0.6-3,0.9-4.7c0.1-0.3,0.1-0.6,0.2-0.9c0.5-2.5,1.1-5.2,1.8-8.1c7-0.2,13.9,0.1,20.9,0c0.2,0,0.5,0,0.7,0
			c0.3,0,0.6,0,0.9,0c7.4,0.1,14-0.2,21,0c0.2,0.9,0.4,1.8,0.6,2.7c0.1,0.5,0.2,1,0.3,1.5c0.2,0.8,0.3,1.5,0.5,2.3
			c0.1,0.4,0.2,0.8,0.3,1.2c0.2,0.8,0.3,1.5,0.5,2.3c0,0,0,0.1,0,0.1c0.1,0.4,0.2,0.8,0.2,1.1c0.1,0.7,0.3,1.5,0.4,2.2
			c0.1,0.7,0.2,1.4,0.4,2.1c0.1,0.3,0.1,0.7,0.2,1c0.1,0.3,0.1,0.7,0.2,1c0,0,0,0,0,0c0.2,1.3,0.4,2.5,0.5,3.7
			c0.1,1,0.2,1.9,0.3,2.7c0,0.4,0.1,0.8,0.1,1.1c0,0.2,0,0.5,0.1,0.7c0,0.2,0,0.4,0,0.6c0,0.4,0.1,0.8,0.1,1.2
			c0,0.7,0.1,1.4,0.1,2.1c0,0.2,0,0.4,0,0.6C210.3,183.2,208.4,186.9,206.8,189z"/>
		<path id="XMLID_404_" class="st8" d="M206.8,189c-10.1,13.1-20.3,14.7-21.3,16.1v0.9h-4v-0.9c-2-1.3-10.9-2.9-21-16.1
			c-1.8-2.4-3.8-6.8-3-18.4c16.6,5.5,34.2,4.7,52.5-0.3C210.8,182.1,208.7,186.6,206.8,189z"/>
	</g>
	<g id="XMLID_437_">
		<path id="XMLID_551_" class="st5" d="M208.5,218.2L208.5,218.2L208.5,218.2C208.5,218.3,208.5,218.3,208.5,218.2
			C208.5,218.2,208.5,218.2,208.5,218.2z"/>
		<path id="XMLID_515_" class="st6" d="M233.2,199.8c-10.1,13.1-19.7,14.7-21.7,16.1v0.1h-4v-0.1c0-1.3-10.6-2.9-20.7-16.1
			c-2.9-3.7-6.1-12.2,1.6-44.7c7-0.2,14.1,0.1,21,0c0.2,0,0.6,0,0.8,0c0.3,0,0.6,0,0.9,0c7.4,0.1,13.9-0.2,20.9,0
			C239.8,187.6,236,196.1,233.2,199.8z"/>
		<path id="XMLID_497_" class="st2" d="M233.2,199.8c-10.1,13.1-19.7,14.7-21.7,16.1v0.1h-4v-0.1c0-1.3-10.6-2.9-20.7-16.1
			c-1.8-2.4-3.7-6.8-2.9-18.4c0.5-6.3,1.9-14.8,4.6-26.3c7-0.2,14,0.1,20.9,0c0.2,0,0.5,0,0.8,0c0.3,0,0.6,0,0.9,0
			c7.4,0.1,14-0.2,21,0c2.7,11.3,3.8,19.7,4.3,26C237.4,192.9,235,197.4,233.2,199.8z"/>
		<path id="XMLID_496_" class="st5" d="M208.5,218.3L208.5,218.3L208.5,218.3C208.5,218.2,208.5,218.2,208.5,218.3
			C208.5,218.3,208.5,218.3,208.5,218.3z"/>
		<path id="XMLID_444_" class="st7" d="M238.7,181c0,0-0.2-0.1-0.2-0.1v0c-1-6.8-1.7-16-4.6-28.2c-7.6-0.2-14.7,0.1-22.6,0
			c-0.3,0-0.6,0-0.9,0c-0.3,0-0.5,0-0.8,0c-7.5,0.1-15.3-0.2-22.9,0c-2.9,12.3-4.2,21.5-5.2,28.3c0,0,0,0,0,0c0,2,0.1,3.7,0.1,5.3
			c0,8.7,2.1,12.6,3.8,14.8c6.4,8.4,12.9,14,17.3,15c0,0,0,0,0,0c0.5,0,0.9,0.3,1.3,0.5c2.3,1.1,3.9,1.8,4.5,2.3c0,0,0,0.2,0,0.2h-1
			v39.6c-12,1.9-18.9,3.2-18.8,3.8c0.1,0.7,7.5,0.7,21.4,0c13.8,0.7,20.9,0.6,21,0c0.1-0.7-5.6-1.9-19.6-3.8v-40
			c2-1.4,12.6-3.4,23.5-17.6c1.4-1.8,3.2-4.8,3.7-10.8c0.1-1.3,0.2-2.8,0.2-4.4C238.8,184.4,238.8,182.8,238.7,181z M233.2,199.8
			c-10.1,13.1-19.7,14.7-21.7,16.1v0.1h-4v-0.1c0-1.3-10.6-2.9-20.7-16.1c-1.6-2.1-3.1-5.7-3-14.1c0-0.2,0.1-0.4,0.1-0.6
			c0-0.2,0.1-0.4,0.1-0.7c0-0.3-0.3-0.6-0.3-0.9c0-0.6-0.2-1.2-0.2-1.8v0c0-0.2,0.4-0.4,0.4-0.6c0-0.6,0.3-1.1,0.3-1.7
			c0.1-0.6,0.2-1.2,0.3-1.9c0-0.2,0.1-0.5,0.1-0.7c0-0.3,0.1-0.7,0.2-1.1c0-0.3,0.1-0.6,0.1-0.9c0-0.2,0-0.3,0.1-0.5
			c0.1-0.5,0.1-1,0.2-1.5c0.1-0.5,0.2-1.1,0.3-1.6c0-0.2,0.1-0.5,0.1-0.7c0,0,0-0.1,0-0.1c0.1-0.5,0.2-1,0.2-1.4
			c0.3-1.5,0.6-3,0.9-4.7c0.1-0.3,0.1-0.6,0.2-0.9c0.5-2.5,1.1-5.2,1.8-8.1c7-0.2,13.9,0.1,20.9,0c0.2,0,0.5,0,0.7,0
			c0.3,0,0.6,0,0.9,0c7.4,0.1,14-0.2,21,0c0.2,0.9,0.4,1.8,0.6,2.7c0.1,0.5,0.2,1,0.3,1.5c0.2,0.8,0.3,1.5,0.5,2.3
			c0.1,0.4,0.2,0.8,0.3,1.2c0.2,0.8,0.3,1.5,0.5,2.3c0,0,0,0.1,0,0.1c0.1,0.4,0.2,0.8,0.2,1.1c0.1,0.7,0.3,1.5,0.4,2.2
			c0.1,0.7,0.2,1.4,0.4,2.1c0.1,0.3,0.1,0.7,0.2,1c0.1,0.3,0.1,0.7,0.2,1c0,0,0,0,0,0c0.2,1.3,0.4,2.5,0.5,3.7
			c0.1,1,0.2,1.9,0.3,2.7c0,0.4,0.1,0.8,0.1,1.1c0,0.2,0,0.5,0.1,0.7c0,0.2,0,0.4,0,0.6c0,0.4,0.1,0.8,0.1,1.2
			c0,0.7,0.1,1.4,0.1,2.1c0,0.2-0.2,0.4-0.2,0.6C236.8,194.1,234.8,197.7,233.2,199.8z"/>
		<path id="XMLID_439_" class="st8" d="M233.2,199.8c-10.1,13.1-19.7,14.7-21.7,16.1v0.1h-4v-0.1c0-1.3-10.6-2.9-20.7-16.1
			c-1.8-2.4-3.7-6.8-2.9-18.4c16.6,5.5,34.1,4.7,52.4-0.3C237.2,192.9,235,197.4,233.2,199.8z"/>
	</g>
</g>
</svg>
